<svg width="480" height="442" viewBox="0 0 480 442" fill="none" xmlns="http://www.w3.org/2000/svg">
<path d="M245.727 0.00195312C316.596 0.863013 373.77 56.2279 373.771 124.399C373.771 145.286 368.403 164.969 358.92 182.252C372.432 182.293 386.106 184.623 399.452 189.487C463.503 212.834 495.899 285.733 472.291 352.792C491.521 297.725 463.756 237.528 409.781 217.854C392.739 211.643 375.104 210.208 358.303 212.87C361.922 224.208 363.876 236.281 363.876 248.808C363.876 302.947 327.409 348.632 277.519 363.004C288.667 388.009 309.354 408.535 336.839 418.553C390.82 438.229 450.735 409.98 471.342 355.405L471.238 355.686C446.191 422.083 374.686 456.951 310.719 433.635C278.439 421.869 254.199 397.517 241.115 367.67C239.53 367.632 237.953 367.564 236.384 367.466C216.401 411.23 173.688 441.468 124.22 441.468C56.0575 441.468 0.718805 384.06 0.000976562 312.959C0.736625 371.292 47.3861 418.348 104.825 418.349C146.019 418.349 181.662 394.145 198.801 358.937C155.054 341.221 124.224 298.587 124.224 248.808C124.224 234.557 126.751 220.891 131.384 208.229C122.902 205.973 114.001 204.771 104.825 204.771C47.3799 204.771 0.725819 251.837 0 310.179L0.00195312 309.88C0.861983 238.908 56.147 181.651 124.22 181.651C125.788 181.651 127.349 181.682 128.903 181.742C119.593 164.582 114.33 145.081 114.33 124.399C114.33 56.1384 171.654 0.719846 242.652 0.000976562C184.404 0.737693 137.415 47.4551 137.415 104.978C137.415 127.942 144.906 149.184 157.611 166.466C179.417 143.934 210.082 129.908 244.05 129.908C278.018 129.908 308.683 143.934 330.488 166.466C343.193 149.184 350.685 127.942 350.685 104.978C350.685 47.4488 303.686 0.726824 245.429 0L245.727 0.00195312ZM243.56 156.106C216.896 156.106 192.886 167.578 176.109 185.897C190.1 197.296 207.096 205.243 225.752 208.42V224.406C215.739 229.338 208.85 239.644 208.85 251.56C208.85 251.945 208.859 252.329 208.873 252.711L195.755 258.386C186.434 241.883 172.91 228.155 156.669 218.724C153.464 228.157 151.725 238.277 151.725 248.808C151.725 287.019 174.629 319.829 207.334 334.016C208.855 326.775 209.658 319.263 209.658 311.56C209.658 302.869 208.638 294.421 206.715 286.332L225.097 278.38C229.285 280.571 234.048 281.812 239.103 281.812C244.752 281.812 250.039 280.262 254.563 277.566L273.409 286.366C267.926 303.499 266.935 321.053 269.812 337.664C307.738 326.263 335.392 290.796 335.393 248.808C335.393 239.133 333.923 229.805 331.199 221.038C313.342 229.167 297.665 242.275 286.372 259.31L269.354 251.363C269.287 240.888 263.896 231.677 255.752 226.298V209.336C276.741 207.08 295.899 198.826 311.423 186.354C294.628 167.769 270.444 156.107 243.56 156.106Z" fill="url(#paint0_linear_15_5)"/>
<defs>
<linearGradient id="paint0_linear_15_5" x1="0" y1="0" x2="480" y2="441" gradientUnits="userSpaceOnUse">
<stop offset="0.278846" stop-color="white" stop-opacity="0.55"/>
<stop offset="1" stop-color="#3B5866" stop-opacity="0.55"/>
</linearGradient>
</defs>
</svg>
