<svg width="85" height="85" viewBox="0 0 85 85" fill="none" xmlns="http://www.w3.org/2000/svg">
<rect width="85" height="85" rx="16" fill="#1D3541" fill-opacity="0.35"/>
<path d="M24.3485 66.9474C23.8434 67.3551 23.4322 67.7269 23.0874 68.113C22.2177 69.0871 21.7714 70.1498 21.2903 72.0936C21.1704 72.5779 21.0818 72.8793 21.0367 73.0254C21.0255 73.062 21.0168 73.0889 21.0111 73.1066C21.0084 73.1153 21.0062 73.1221 21.0048 73.1266C21.0041 73.1287 21.0035 73.1309 21.003 73.1326C21.0028 73.1332 21.0023 73.1351 21.0019 73.137C21.0016 73.1385 21.0008 73.1429 21.0005 73.146C21.0019 73.1613 21.0656 73.2126 21.1356 73.1944C21.1431 73.1872 21.1508 73.1769 21.1521 73.1746C21.1527 73.1735 21.1534 73.1717 21.1538 73.1709C21.1543 73.1697 21.1549 73.1685 21.1552 73.1678C21.1559 73.1661 21.1566 73.1639 21.1575 73.1617C21.1593 73.1571 21.162 73.1502 21.1654 73.1416C21.1721 73.1242 21.182 73.0986 21.1954 73.065C21.303 72.7964 21.6343 72.0189 22.2883 70.9546C22.9022 69.9556 23.8003 68.7042 25.0644 67.384C24.8903 67.2858 24.7232 67.1909 24.5708 67.1022L24.4765 67.0473L24.3931 66.9819C24.3784 66.9703 24.3634 66.9588 24.3485 66.9474Z" fill="#A2AAAD"/>
<path d="M31.1001 60.9578C30.0194 62.3221 28.7543 63.6629 27.3766 64.6817C27.1456 64.8525 26.9245 65.015 26.7129 65.1704C26.8516 65.2488 27.009 65.3375 27.1763 65.4315C28.2332 64.5651 29.4586 63.7069 30.8748 62.9065L30.8895 62.8981L32.0166 61.3022C31.6927 61.1897 31.3871 61.0741 31.1001 60.9578Z" fill="#A2AAAD"/>
<path d="M20.3152 54.7582C18.7284 56.4273 17.3575 58.4066 17.0017 60.5148L17 60.5251L17.0023 60.5355C17.0093 60.5661 17.0223 60.6027 17.0452 60.6319C17.0568 60.6468 17.0739 60.6635 17.0987 60.675C17.1256 60.6875 17.1575 60.6919 17.1901 60.685C17.2204 60.6787 17.2456 60.664 17.266 60.6475C17.2868 60.6308 17.3064 60.6091 17.3255 60.5833C17.3637 60.5317 17.405 60.4563 17.4501 60.351C17.5402 60.1409 17.9067 58.839 19.3847 56.9331C19.8295 56.3594 20.3755 55.7312 21.0446 55.0617C20.7868 54.9609 20.542 54.8595 20.3152 54.7582Z" fill="#A2AAAD"/>
<path d="M35.1811 52.3196L35.0673 52.3396L34.9514 52.3457C34.7134 52.3582 34.5546 52.3767 34.4474 52.3955V55.7223C34.0973 56.4465 33.5001 57.5243 32.7123 58.7221C32.9033 58.7964 33.1043 58.8704 33.3151 58.9426L33.328 58.947L33.341 58.9517C33.4318 58.9843 33.5209 59.0167 33.6082 59.0486L35.9254 55.7675L35.9392 55.7479L35.9351 55.7254C35.7561 54.7623 35.5392 53.5474 35.3272 52.2942C35.2793 52.3025 35.2307 52.3109 35.1811 52.3196Z" fill="#A2AAAD"/>
<path d="M27.207 48.0132L26.6173 49.1747C26.579 49.2421 26.5231 49.3534 26.4763 49.4745C26.4316 49.5903 26.3937 49.7205 26.3903 49.831C26.3887 49.8327 26.3868 49.8349 26.3843 49.8373C26.3711 49.8499 26.3498 49.8677 26.3195 49.891C26.2592 49.9375 26.1695 50.0012 26.0533 50.082C25.8223 50.2426 25.4876 50.4697 25.0852 50.7525C24.3733 51.2528 23.4437 51.932 22.4675 52.7505C22.7274 52.8509 23.009 52.9527 23.3052 53.0537C24.5744 52.0438 26.1171 50.9806 27.9924 49.8996L28.0181 49.8847L28.0244 49.8594L28.2462 48.9535L28.247 48.9501L28.2474 48.9468C28.272 48.7314 28.3126 48.3953 28.3544 48.0873C28.3966 47.7771 28.4391 47.5014 28.4673 47.4025C28.4832 47.3469 28.524 47.1916 28.5791 46.979C28.2324 46.9543 27.8941 46.9236 27.5806 46.8869L27.207 48.0132Z" fill="#A2AAAD"/>
<path d="M41.6282 46.1914C41.4146 46.1931 41.1418 46.1981 40.8921 46.2072C40.7372 46.2129 40.5926 46.22 40.4775 46.2285C40.3659 46.2369 40.299 46.2458 40.2728 46.2516C40.2403 46.2652 40.2063 46.2817 40.1715 46.2998C40.0878 46.9193 40.0525 47.7267 40.1831 48.4121C40.2587 48.8087 40.3908 49.1712 40.6076 49.4328C40.827 49.6974 41.1356 49.8607 41.5525 49.8467L41.6282 49.844V46.1914Z" fill="#A2AAAD"/>
<path d="M41.6282 36.5436C41.5914 36.5446 41.5456 36.5481 41.4911 36.5548C41.3937 36.5668 41.2864 36.5861 41.1844 36.605L41.177 36.6064L41.1696 36.6072C41.0148 36.6234 40.4167 36.6436 39.9917 36.6145V37.7057L35.7929 42.4968L35.7914 42.4986L35.79 42.5003L34.4605 44.2458L33.3539 45.4728L33.3314 45.4978L33.3411 45.5279L33.7834 46.8822L34.2914 49.7966C34.4047 49.7855 34.517 49.7769 34.6274 49.77C34.7245 49.7531 34.8187 49.7369 34.9114 49.7212C34.8803 49.5164 34.8498 49.3149 34.8209 49.1174C34.6629 48.0376 34.5426 47.0839 34.4949 46.4266C34.471 46.0971 34.4658 45.8455 34.4821 45.6903C34.4873 45.6406 34.4949 45.6052 34.5022 45.5815L34.5424 45.6129L39.9917 38.3934V38.5185C39.9054 39.07 39.8131 39.8958 39.8162 40.5855C39.8178 40.9305 39.8431 41.2457 39.907 41.4762C39.9389 41.591 39.9817 41.6902 40.0404 41.7621C40.0526 41.7771 40.066 41.7909 40.0802 41.8038L40.112 41.7981C40.2108 41.781 40.3325 41.7623 40.5311 41.7379L40.5429 41.7363H40.5546C41.1363 41.7366 41.4399 41.7474 41.6282 41.7669V36.5436Z" fill="#A2AAAD"/>
<path d="M40.5669 41.9952C40.3522 42.0217 40.2345 42.041 40.1342 42.059C39.982 42.5562 39.8252 43.2407 39.7738 43.9251C39.7434 44.3302 39.7497 44.737 39.8165 45.1058C39.8781 45.4454 39.9922 45.7562 40.1794 46.0042L40.1863 46.0024C40.252 45.9877 40.3494 45.9783 40.4489 45.9709C40.571 45.9618 40.7209 45.9545 40.8781 45.9487C41.1327 45.9394 41.4106 45.9341 41.6282 45.9324V42.028C41.4791 42.0094 41.203 41.9956 40.5669 41.9952Z" fill="#A2AAAD"/>
<path fill-rule="evenodd" clip-rule="evenodd" d="M31.1208 22.9108C30.9509 22.9665 30.7894 23.0178 30.6392 23.0631C30.5002 23.105 30.3627 23.151 30.2232 23.2007L30.3103 23.4626L30.3111 23.4646L30.3118 23.4667L31.0511 25.2139L31.863 27.54L31.8635 27.5415L31.8643 27.543L32.2569 28.4882L32.3563 28.0527L33.4321 29.0533L33.4323 29.0532L35.4279 30.9295L35.4308 30.9323L35.434 30.9348L36.4663 31.7093L37.4186 32.6068L37.8581 33.2482L37.8604 33.2515L37.863 33.2546L38.3805 33.8369L38.3859 33.8431L38.393 33.8481L38.8829 34.1911V34.2965C36.1812 33.685 32.1123 32.9255 28.5562 32.607C26.7566 32.4458 25.0836 32.3971 23.784 32.5391C23.1343 32.6101 22.5736 32.7291 22.1359 32.908C21.6994 33.0865 21.3804 33.3267 21.2226 33.6416C21.1053 33.8192 21.0968 34.0484 21.2656 34.2976C21.4338 34.5458 21.7769 34.8136 22.3623 35.0801C23.5335 35.6131 25.7021 36.1536 29.4902 36.5163L29.4933 36.5165L29.4964 36.5167C30.8789 36.5599 32.9358 36.5372 34.6121 36.3282C35.4491 36.2239 36.1984 36.0723 36.7219 35.8558C36.9837 35.7475 37.1947 35.6206 37.3308 35.4711C37.4567 35.3327 37.517 35.1762 37.4954 35.0026C37.7132 34.9215 38.026 34.826 38.3148 34.7814C38.4715 34.7572 38.616 34.7487 38.7324 34.7631C38.84 34.7764 38.9143 34.8079 38.9584 34.8565C38.9734 35.1089 39.0412 35.4751 39.2017 35.7773C39.2066 35.7866 39.212 35.7957 39.2171 35.8049H39.1651L39.1486 35.8116C38.8274 35.9413 38.3344 36.149 37.8991 36.3503C37.6816 36.451 37.4774 36.5505 37.3159 36.6383C37.2352 36.6821 37.1641 36.7236 37.1071 36.7612C37.0514 36.7979 37.004 36.8341 36.9752 36.8678C36.9599 36.8857 36.9228 36.9158 36.8602 36.9576C36.7994 36.9982 36.7201 37.0463 36.6262 37.1001C36.4387 37.2075 36.1961 37.3359 35.9335 37.4696C35.5398 37.6702 35.103 37.882 34.7432 38.0526L34.4135 38.2076L34.411 38.2086L34.4087 38.2098L32.2683 39.3727C31.8462 39.5465 30.9431 39.9139 30.6512 40.0161C30.4254 40.0952 30.0754 40.2521 29.8211 40.371L29.6069 40.473L29.5972 40.4777L29.5897 40.4844C29.5256 40.5405 29.4301 40.634 29.3502 40.7342C29.3102 40.7844 29.273 40.8375 29.2456 40.8893C29.2187 40.9403 29.1987 40.9948 29.1987 41.0463C29.1987 41.1334 29.2259 41.2323 29.2575 41.3175C29.2894 41.4036 29.3279 41.4809 29.354 41.5267C29.3607 41.5384 29.3713 41.5683 29.3779 41.6222C29.3844 41.6747 29.3865 41.7462 29.3799 41.8385C29.3668 42.023 29.3186 42.2882 29.2014 42.6473C29.0844 43.0057 28.8471 43.4687 28.5882 44.0376C28.5397 44.1441 28.4911 44.2543 28.442 44.3677C28.6997 44.3907 28.9798 44.4106 29.2691 44.4267L30.0179 42.2964L30.3791 41.5377L31.4692 40.7744L39.4717 36.1251C39.608 36.2417 39.7789 36.3196 39.9917 36.3242V36.3541C40.3873 36.3841 40.9781 36.3652 41.1244 36.3509C41.2238 36.3324 41.3374 36.312 41.4441 36.2989C41.5034 36.2916 41.5669 36.2857 41.6282 36.2846V30.8694C41.5997 30.8829 41.566 30.8895 41.5309 30.8861C41.2013 30.8545 40.8603 30.8438 40.5816 30.8464C40.4423 30.8477 40.3199 30.8523 40.2235 30.8591C40.1227 30.8661 40.0623 30.8748 40.0389 30.8808C39.929 30.9093 39.8301 30.9432 39.7211 30.9815C39.7295 30.9932 39.7379 31.0051 39.7467 31.0169C39.2913 31.3532 38.914 31.8717 38.8829 32.632V32.7939L38.8717 32.784C38.8011 32.7223 37.4702 31.8164 35.9921 30.3285L35.9874 30.3237L34.9501 29.6103L32.8119 27.7385L32.3809 27.2986L32.1633 26.6002L31.7207 25.1152L31.2761 23.2995L31.2747 23.296L31.1208 22.9108ZM23.2712 32.9262C23.3578 32.9179 23.4364 32.9686 23.4466 33.0396C23.4568 33.1106 23.3947 33.1749 23.3081 33.1833C23.2742 33.1866 23.2196 33.1999 23.1436 33.2239C23.0689 33.2474 22.9914 33.2752 22.9068 33.3037C22.7444 33.3586 22.5386 33.4791 22.4029 33.5773C22.356 33.6113 22.3103 33.6684 22.2667 33.7497C22.2238 33.8298 22.188 33.9233 22.1543 34.0217C22.0811 34.2353 22.2413 34.3627 22.439 34.542C22.4885 34.587 22.5742 34.6376 22.7428 34.7125C22.9095 34.7866 23.1415 34.8779 23.4725 35.0078C23.6269 35.0684 23.7716 35.1155 23.91 35.1588C24.0464 35.2015 24.1819 35.2421 24.3072 35.2871C24.362 35.3067 24.434 35.3208 24.5268 35.336C24.6137 35.3502 24.72 35.3656 24.8183 35.3893C24.914 35.4124 25.0219 35.4331 25.1321 35.4542C25.24 35.4747 25.3517 35.4959 25.4467 35.5187C25.5287 35.5385 25.6215 35.5509 25.7292 35.5642C25.8334 35.5772 25.9513 35.591 26.0677 35.6143C26.3395 35.6686 26.6071 35.7099 26.8901 35.7528C27.089 35.783 27.2615 35.816 27.4216 35.8471C27.5827 35.8783 27.7293 35.9072 27.8826 35.931C27.9971 35.9488 28.1007 35.953 28.2988 35.954C28.496 35.955 28.7818 35.9531 29.2472 35.9612C30.1348 35.9767 31.8768 35.9666 32.8476 35.9506C33.4037 35.9414 33.7297 35.9188 33.9311 35.8964C34.137 35.8735 34.1993 35.8535 34.2857 35.8398C34.6169 35.787 34.8586 35.7435 35.1111 35.6858C35.3568 35.6297 35.4988 35.5783 35.6441 35.5251C35.7744 35.4774 35.9145 35.4072 36.0532 35.316C36.1192 35.2726 36.2122 35.1848 36.3285 35.0744C36.4378 34.9704 36.5637 34.8505 36.6818 34.7647C36.8736 34.6253 37.0815 34.5868 37.2513 34.531L37.2634 34.527L37.2764 34.5246L37.308 34.5198C37.3394 34.5156 37.37 34.5134 37.3957 34.5118C37.4346 34.5094 37.4588 34.5085 37.4826 34.5063C37.5198 34.5027 37.5423 34.4963 37.5782 34.4858C37.6603 34.4618 37.7506 34.4971 37.7799 34.5644C37.8091 34.6317 37.7663 34.7058 37.6841 34.7297C37.6446 34.7413 37.5939 34.7562 37.5191 34.7633C37.487 34.7664 37.4466 34.7682 37.4195 34.7699C37.3925 34.7716 37.3706 34.7737 37.3526 34.7764C37.1388 34.8455 37.0253 34.8609 36.8913 34.9584C36.7924 35.0303 36.6812 35.1354 36.5676 35.2433C36.461 35.3447 36.3452 35.4558 36.2509 35.5179C36.0935 35.6214 35.9306 35.7037 35.773 35.7614C35.6223 35.8166 35.4638 35.874 35.1959 35.9352C34.9318 35.9956 34.6807 36.0405 34.3459 36.0938C34.2972 36.1016 34.1866 36.1291 33.9737 36.1528C33.7562 36.177 33.4171 36.2001 32.854 36.2094C31.8813 36.2255 30.1343 36.2355 29.2404 36.2199C28.7782 36.2119 28.4982 36.2139 28.2968 36.2128C28.0963 36.2118 27.9684 36.2078 27.824 36.1854C27.6621 36.1603 27.5075 36.1298 27.3488 36.099C27.1893 36.068 27.0234 36.0363 26.8327 36.0073C26.5502 35.9645 26.2744 35.9221 25.9929 35.8658C25.8932 35.8459 25.7909 35.8337 25.682 35.8202C25.5765 35.8071 25.4632 35.7925 25.3575 35.7671C25.2732 35.7468 25.1715 35.7275 25.0605 35.7063C24.9518 35.6856 24.8351 35.6632 24.7291 35.6377C24.6482 35.6182 24.5619 35.6057 24.4648 35.5898C24.3737 35.5748 24.2703 35.5564 24.1805 35.5242C24.0643 35.4825 23.9401 35.4453 23.7972 35.4006C23.6564 35.3565 23.5021 35.3064 23.336 35.2412C23.0083 35.1126 22.7677 35.0181 22.5923 34.9402C22.4186 34.863 22.2922 34.7951 22.2046 34.7156C22.0448 34.5707 21.721 34.3286 21.8502 33.9517C21.8848 33.8506 21.9255 33.743 21.9776 33.6457C22.029 33.5498 22.0971 33.4533 22.1938 33.3833C22.3419 33.2761 22.5781 33.1347 22.7866 33.0644C22.8625 33.0387 22.9514 33.0071 23.0304 32.9822C23.1079 32.9578 23.1947 32.9336 23.2712 32.9262ZM23.763 34.263C23.8209 34.2096 23.9208 34.2047 23.986 34.2521C24.0557 34.3028 24.0817 34.3171 24.1162 34.3321C24.1582 34.3505 24.2131 34.3697 24.2608 34.3853L24.2619 34.3857C24.3578 34.4178 24.4779 34.4466 24.6155 34.4794C24.7494 34.5112 24.8976 34.5463 25.0352 34.5897C25.2554 34.6591 25.4824 34.7264 25.7579 34.7664C26.0077 34.8027 26.4187 34.8526 26.6919 34.9083C26.8742 34.9454 27.1034 35.0061 27.696 35.0178C27.973 35.0232 28.2359 35.0431 28.477 35.063C28.7205 35.0831 28.9378 35.1027 29.1337 35.1095C29.3705 35.1177 29.603 35.1403 29.846 35.1611C30.0906 35.182 30.3515 35.2018 30.6556 35.2064C31.7125 35.2224 32.3709 35.2225 32.4194 35.2225C32.5066 35.2225 32.5773 35.2804 32.5773 35.3519C32.5773 35.4234 32.5066 35.4813 32.4194 35.4813C32.3695 35.4813 31.7091 35.4813 30.6497 35.4653C30.332 35.4605 30.0605 35.4397 29.8131 35.4185C29.564 35.3972 29.3445 35.3759 29.1202 35.3681C28.9126 35.3609 28.6831 35.34 28.4454 35.3204C28.2054 35.3006 27.9525 35.2817 27.6883 35.2765C27.0608 35.2641 26.805 35.198 26.6157 35.1594C26.3564 35.1066 25.9697 35.0599 25.7028 35.0212C25.3963 34.9766 25.1459 34.902 24.9217 34.8313C24.7989 34.7926 24.6641 34.7604 24.5276 34.728C24.3952 34.6965 24.2579 34.6638 24.1436 34.6256L24.1434 34.6257C24.0925 34.609 24.0251 34.5856 23.9678 34.5606C23.9029 34.5323 23.8558 34.5036 23.7763 34.4457C23.7111 34.3983 23.7051 34.3164 23.763 34.263ZM23.7362 33.1868C23.7998 33.138 23.8997 33.1406 23.9593 33.1928C24.0207 33.2465 24.0756 33.2942 24.1192 33.328C24.2715 33.4245 24.5252 33.5457 24.7412 33.657C24.8805 33.7279 25.3482 33.9298 25.7828 34.0245C26.0241 34.0771 26.4017 34.2269 27.2259 34.2631C27.7074 34.2843 28.0237 34.2842 28.1688 34.2842C28.256 34.2842 28.3267 34.3422 28.3267 34.4136C28.3267 34.4851 28.256 34.543 28.1688 34.5431C28.0211 34.5431 27.6984 34.5431 27.209 34.5216C26.3413 34.4834 25.9059 34.3192 25.7017 34.2747C25.228 34.1715 24.7312 33.9566 24.5745 33.8768L24.5738 33.8764C24.3742 33.7735 24.0888 33.6371 23.9202 33.5293L23.9148 33.5259L23.9097 33.522C23.8555 33.4806 23.7902 33.4235 23.7288 33.3697C23.6692 33.3175 23.6726 33.2357 23.7362 33.1868ZM25.1008 32.5694C25.8276 32.5694 26.5406 32.5694 27.0131 32.5917C27.4913 32.6142 27.7198 32.6585 27.8553 32.6799C27.9879 32.7009 28.0399 32.7013 29.065 32.8776C30.0891 33.0537 32.0289 33.3955 33.0238 33.5718C34.0155 33.7476 34.0699 33.7593 34.1234 33.771C34.2077 33.7894 34.2579 33.8603 34.2354 33.9293C34.2129 33.9984 34.1263 34.0394 34.042 34.021C33.9979 34.0113 33.9539 34.0015 32.957 33.8248C31.9622 33.6485 30.0231 33.3069 29.0001 33.131C27.9783 32.9552 27.9326 32.9556 27.7954 32.9339C27.6611 32.9127 27.4504 32.8715 26.9949 32.85C26.5337 32.8283 25.8317 32.8283 25.1008 32.8283C25.0136 32.8282 24.9429 32.7703 24.9429 32.6989C24.9429 32.6274 25.0136 32.5695 25.1008 32.5694Z" fill="#A2AAAD"/>
<path d="M40.5388 29.0417C40.5382 29.0418 40.5376 29.042 40.537 29.0422C40.5374 29.0431 40.5377 29.044 40.5381 29.045C40.5393 29.0438 40.5407 29.0428 40.5419 29.0417H40.5388Z" fill="#A2AAAD"/>
<path fill-rule="evenodd" clip-rule="evenodd" d="M40.9551 19.6428C41.1891 20.4367 41.2755 21.9552 41.2872 23.5381C41.2989 25.1156 41.2364 26.7487 41.175 27.7726L41.094 28.0801C40.8864 27.6049 40.5885 27.1653 40.2269 26.7607C40.1451 26.7702 40.0626 26.7841 39.9842 26.8026C39.8522 26.8506 39.6826 26.926 39.528 27.0016C39.9915 27.446 40.2939 27.828 40.533 28.1371C40.6606 28.3021 40.7726 28.4496 40.883 28.5749C40.5916 28.6135 40.2075 28.6835 39.866 28.7864C39.6668 28.8464 39.4785 28.9187 39.3311 29.0044C39.185 29.0893 39.0688 29.1933 39.0328 29.3192L39.0307 29.3265V29.334C39.0307 29.4068 39.0511 29.5196 39.1116 29.6292C39.1645 29.7248 39.2502 29.8213 39.3835 29.8844C39.3553 29.9743 39.3459 30.1074 39.3812 30.2744C39.41 30.4107 39.4688 30.5712 39.5723 30.7522C39.6946 30.709 39.8166 30.6669 39.9436 30.634C40.0036 30.6184 40.0953 30.6082 40.1967 30.6011C40.3026 30.5937 40.433 30.589 40.578 30.5876C40.868 30.5849 41.2226 30.596 41.5676 30.6291C41.5896 30.6312 41.6101 30.6368 41.6282 30.6454V30.5657L41.6328 30.4165C41.6359 30.2717 41.6341 30.1374 41.6282 30.0128V19.563H40.9315L40.9551 19.6428ZM40.4557 28.7919C40.5352 28.7741 40.6187 28.7843 40.6806 28.8024L40.7074 28.8113C40.7272 28.8185 40.7452 28.8272 40.7614 28.8371C40.786 28.824 40.8154 28.8163 40.847 28.8163C40.9341 28.8163 41.0049 28.8743 41.0049 28.9457C41.0049 28.9694 41.0047 29.0387 40.9918 29.1416C40.9821 29.2181 40.9367 29.2771 40.8934 29.3193C40.8516 29.36 40.8 29.3958 40.7677 29.4194C40.6718 29.4895 40.5548 29.5134 40.4617 29.5262C40.4151 29.5326 40.3655 29.5371 40.3251 29.5414C40.2822 29.5459 40.2454 29.5504 40.2122 29.5568C40.027 29.5926 39.8637 29.6147 39.6714 29.6091C39.5696 29.6062 39.5144 29.5467 39.4925 29.5152C39.469 29.4812 39.458 29.445 39.4531 29.4201C39.4237 29.2723 39.5449 29.1627 39.6353 29.1016C39.7338 29.035 39.8535 28.9858 39.9319 28.9571C40.0441 28.916 40.1737 28.8742 40.3055 28.8349L40.4374 28.7966L40.4557 28.7919Z" fill="#A2AAAD"/>
<path d="M38.1105 25.0857C37.8156 25.1891 37.5635 25.2855 37.3629 25.3721C38.2166 25.8958 38.8416 26.3764 39.3157 26.8042C39.4971 26.7134 39.7056 26.6198 39.8665 26.5621L39.8754 26.559L39.885 26.5567L39.9586 26.5401C39.9758 26.5366 39.9931 26.5334 40.0105 26.5302C39.4688 25.9802 38.8111 25.4992 38.1105 25.0857Z" fill="#A2AAAD"/>
<path d="M35.4567 23.8589C35.2833 23.9105 35.0935 23.9798 34.9067 24.0703C35.7554 24.4651 36.4727 24.8434 37.0821 25.2029C37.2741 25.1141 37.5192 25.016 37.8064 24.9118C37.0335 24.4835 36.2199 24.1331 35.4567 23.8589Z" fill="#A2AAAD"/>
<path d="M33.3083 23.374C33.7656 23.5611 34.1929 23.7454 34.5927 23.9263C34.7429 23.8436 34.8973 23.7747 35.0478 23.7175C34.4199 23.5087 33.8399 23.3544 33.3633 23.2534L33.3083 23.374Z" fill="#A2AAAD"/>
<path d="M25.4457 16.6709C25.2849 16.7644 25.1204 16.8622 24.9535 16.9629L26.4233 17.8042L26.4244 17.8048L26.4245 17.8047L27.8229 18.5778L28.5497 19.1503L28.9115 19.6569L29.2769 20.3607L29.3849 20.6846C29.4387 20.6675 29.4933 20.6506 29.5485 20.6339C29.7474 20.574 29.9774 20.4989 30.2267 20.4142L30.0975 20.0749L30.169 19.6363L30.1704 19.6282L30.1692 19.6201L30.0953 19.1024L30.0922 19.0813L29.631 18.6775L29.6247 18.6721L29.6171 18.6679L29.0257 18.3444L29.0149 18.3384L29.0023 18.3356L28.424 18.209L27.1788 17.5038L27.1758 17.5021L27.1726 17.5006L25.9169 16.9185L25.4457 16.6709Z" fill="#A2AAAD"/>
<path d="M18.7259 12.1036L19.3858 12.617L20.0463 13.3881L20.0495 13.3919L20.0532 13.3952L20.2751 13.5893L20.2776 13.5914L20.2802 13.5933L20.7225 13.9157L20.7223 13.9159L21.3041 14.3614L21.5937 14.8051L21.5999 14.8146L21.6096 14.822L22.3116 15.3545C22.4922 15.2398 22.6726 15.1274 22.8513 15.0179L22.5949 14.9144L22.1662 14.6016L21.7302 14.0929L21.2867 13.5108L21.2815 13.5038L21.2741 13.4982L20.6088 12.9805L20.6053 12.9777L20.6014 12.9753L19.6404 12.3929L19.6368 12.3909L18.82 12.0009L18.7259 12.1036Z" fill="#A2AAAD"/>
<path d="M60.0499 66.9222C60.6037 67.3391 61.0527 67.7179 61.4279 68.1114C62.3569 69.0856 62.8337 70.1487 63.3477 72.0929C63.4757 72.5771 63.5704 72.8784 63.6185 73.0244C63.6305 73.0609 63.6396 73.0877 63.6456 73.1054C63.6486 73.1142 63.651 73.121 63.6525 73.1255C63.6533 73.1277 63.654 73.1299 63.6545 73.1316C63.6547 73.1322 63.6553 73.1342 63.6558 73.1363C63.6561 73.1378 63.6569 73.1424 63.6572 73.1458C63.6556 73.1619 63.5924 73.2126 63.5239 73.1959C63.516 73.1887 63.5079 73.1783 63.5065 73.176C63.5059 73.1748 63.505 73.1731 63.5047 73.1723C63.504 73.171 63.5034 73.1696 63.5031 73.1689C63.5024 73.1672 63.5014 73.1651 63.5005 73.1628C63.4986 73.1582 63.4957 73.1514 63.4922 73.1429C63.485 73.1255 63.4744 73.0997 63.4601 73.0661C63.3452 72.7976 62.9914 72.0203 62.293 70.9563C61.6335 69.9514 60.6668 68.6911 59.304 67.3622C59.4601 67.2794 59.6097 67.1997 59.7473 67.1247L59.8422 67.073L59.927 67.0107C59.9676 66.9808 60.0086 66.9513 60.0499 66.9222Z" fill="#A2AAAD"/>
<path d="M52.8611 60.9459C54.0173 62.3138 55.3718 63.6588 56.8471 64.6803C57.1045 64.8585 57.3504 65.0278 57.5853 65.1894C57.4353 65.2686 57.2684 65.3567 57.0931 65.449C55.9594 64.577 54.6436 63.713 53.1214 62.9075L53.1065 62.8995L53.097 62.8871L51.8925 61.2902C52.2351 61.1775 52.5582 61.0621 52.8611 60.9459Z" fill="#A2AAAD"/>
<path d="M64.3767 54.7447C66.0765 56.4162 67.5469 58.4002 67.928 60.5142L67.93 60.5253L67.9274 60.5363C67.9198 60.5672 67.9059 60.6041 67.8813 60.6336C67.8562 60.6636 67.8062 60.6993 67.7348 60.6853C67.6773 60.6739 67.6318 60.6332 67.5935 60.5849C67.5526 60.5333 67.5084 60.4577 67.4601 60.3523C67.3639 60.142 66.9726 58.8405 65.3942 56.9347C64.9157 56.3569 64.3275 55.7239 63.6058 55.0489C63.8794 54.9477 64.1381 54.846 64.3767 54.7447Z" fill="#A2AAAD"/>
<path d="M48.5601 52.3231L48.6671 52.3406L48.7759 52.3459C49.0042 52.3572 49.1714 52.3735 49.2955 52.3916V55.7218C49.6711 56.4491 50.3127 57.5328 51.1593 58.7364C50.9761 58.8021 50.7847 58.8675 50.5851 58.9314L50.5726 58.9355L50.5601 58.9397C50.4407 58.9799 50.3235 59.0197 50.2093 59.0588L47.7127 55.7487L47.7173 55.7248C47.9085 54.7611 48.1405 53.5455 48.367 52.2917C48.4301 52.3019 48.4943 52.3122 48.5601 52.3231Z" fill="#A2AAAD"/>
<path d="M57.0285 48.0127L57.658 49.1733C57.6989 49.2407 57.7587 49.3522 57.8086 49.4733C57.8562 49.5888 57.8969 49.719 57.9008 49.8299C57.9024 49.8314 57.9042 49.8335 57.9067 49.8357C57.9208 49.8483 57.9437 49.8661 57.9761 49.8895C58.0406 49.936 58.1364 49.9999 58.2604 50.0806C58.5073 50.2413 58.8646 50.4683 59.2944 50.7511C60.0589 51.2541 61.0585 51.9381 62.1074 52.7626C61.8293 52.862 61.5296 52.9623 61.2157 53.0618C59.8583 52.0498 58.2076 50.9843 56.2001 49.9008L56.1731 49.8861L55.9285 48.9507L55.928 48.9472C55.9017 48.7318 55.8584 48.3957 55.8138 48.0878C55.7687 47.7775 55.7232 47.502 55.6932 47.4034C55.6762 47.3476 55.6324 47.1917 55.5733 46.9783C55.9412 46.9535 56.2991 46.9226 56.6294 46.886L57.0285 48.0127Z" fill="#A2AAAD"/>
<path d="M41.6368 46.1914C41.8644 46.1931 42.1536 46.1983 42.4185 46.2073C42.5841 46.213 42.7388 46.2201 42.8622 46.2287C42.9829 46.2371 43.0571 46.2462 43.0864 46.2526C43.117 46.2646 43.1486 46.2788 43.1811 46.2943C43.271 46.9146 43.3093 47.7249 43.1693 48.4127C43.0885 48.8098 42.9472 49.1726 42.7155 49.4343C42.481 49.6992 42.1532 49.8606 41.7127 49.8467L41.6368 49.8443V46.1914Z" fill="#A2AAAD"/>
<path d="M41.6368 36.5436C41.6766 36.5448 41.7249 36.5486 41.781 36.5551C41.8858 36.5672 42.001 36.5865 42.1099 36.6054L42.1169 36.6067L42.124 36.6073C42.2875 36.6233 42.9218 36.6436 43.3738 36.6149V37.7044L47.8579 42.4952L47.861 42.4987L49.2804 44.2437L50.4628 45.4711L50.4878 45.4972L50.0044 46.8839L49.462 49.7974C49.3332 49.7852 49.2052 49.7758 49.0788 49.7686C48.9871 49.7536 48.8978 49.7393 48.8099 49.7252C48.8434 49.5189 48.8761 49.3158 48.9072 49.1169C49.0759 48.0371 49.2045 47.0835 49.2554 46.4263C49.2809 46.0969 49.2865 45.8455 49.2691 45.6907C49.2648 45.6523 49.2592 45.6211 49.2526 45.5969C49.2504 45.589 49.2478 45.5822 49.2457 45.5764L49.2008 45.6091L49.1507 45.5468L43.3738 38.3811V38.5186C43.466 39.0702 43.5646 39.8958 43.5613 40.5855C43.5597 40.9306 43.5325 41.2461 43.464 41.4771C43.4299 41.5922 43.3841 41.6917 43.3212 41.7638C43.3088 41.7781 43.2952 41.7913 43.281 41.8036L43.2466 41.7979C43.1414 41.7808 43.0118 41.762 42.8 41.7376L42.7891 41.7363H42.7781C42.1592 41.7366 41.8363 41.7474 41.6368 41.7666V36.5436Z" fill="#A2AAAD"/>
<path d="M42.7659 41.9952C42.9899 42.0211 43.1158 42.0401 43.2215 42.0577C43.384 42.5552 43.5516 43.24 43.6065 43.9248C43.639 44.3301 43.6323 44.7372 43.5609 45.1064C43.4952 45.4456 43.3736 45.7561 43.1744 46.004L43.1658 46.0019C43.0979 45.9877 42.9958 45.9782 42.889 45.9707C42.7591 45.9617 42.5994 45.9543 42.4316 45.9486C42.1621 45.9394 41.8682 45.9343 41.6368 45.9326V42.027C41.8001 42.0086 42.0982 41.9956 42.7659 41.9952Z" fill="#A2AAAD"/>
<path fill-rule="evenodd" clip-rule="evenodd" d="M52.8628 22.9015C53.0661 22.9644 53.2589 23.0219 53.4363 23.072C53.5622 23.1076 53.6869 23.1459 53.8121 23.1867L53.7137 23.4636L53.713 23.4658L53.712 23.468L52.9225 25.2151L52.0554 27.5411L52.0549 27.5426L52.0541 27.5443L51.6419 28.4732L51.5377 28.046L50.3796 29.0544L48.2479 30.9311L48.2448 30.9338L48.2415 30.9362L47.139 31.7105L46.1217 32.6084L45.6523 33.2498L45.6498 33.2532L45.6469 33.2562L45.0942 33.8386L45.0885 33.8447L45.0812 33.8495L44.5582 34.1923V34.2979C47.4434 33.6861 51.7931 32.9257 55.594 32.607C57.5156 32.4458 59.3016 32.3972 60.6883 32.539C61.3816 32.6099 61.9795 32.7289 62.4458 32.9074C62.9099 33.085 63.25 33.3243 63.4191 33.6389C63.5457 33.8177 63.5549 34.0489 63.3737 34.2993C63.1941 34.5475 62.828 34.8149 62.2036 35.0809C60.9541 35.6134 58.6394 36.1537 54.5941 36.5163L54.5912 36.5165L54.5883 36.5167C53.112 36.5599 50.9159 36.5372 49.1265 36.3284C48.2329 36.224 47.4337 36.0726 46.8758 35.8566C46.5969 35.7486 46.372 35.622 46.2269 35.4727C46.0928 35.3348 46.0279 35.1779 46.0506 35.0036C45.8175 34.9223 45.4821 34.8263 45.1721 34.7815C45.0043 34.7573 44.8487 34.7487 44.7227 34.7632C44.6061 34.7767 44.5253 34.8089 44.4777 34.8576C44.4615 35.1104 44.3887 35.4765 44.2172 35.7787C44.2122 35.7875 44.2068 35.7962 44.2016 35.8049H44.2596L44.2753 35.8108C44.6183 35.9405 45.1448 36.1482 45.6096 36.3495C45.8418 36.4501 46.0599 36.5496 46.2323 36.6372C46.3183 36.681 46.394 36.7225 46.4548 36.76C46.5141 36.7965 46.5644 36.8326 46.5951 36.8661C46.6116 36.8841 46.6515 36.9143 46.7185 36.9562C46.7835 36.9969 46.8683 37.0451 46.9686 37.0989C47.1691 37.2065 47.4282 37.3349 47.7087 37.4686C48.1292 37.6692 48.5959 37.8811 48.9803 38.0517L49.3325 38.2067L49.3348 38.2077L49.3371 38.2088L51.623 39.3717C52.0732 39.5453 53.0393 39.9133 53.3515 40.0156C53.6725 40.1209 54.2292 40.3643 54.4658 40.472L54.4755 40.4764L54.4834 40.4829C54.5517 40.5389 54.6537 40.6324 54.7391 40.7326C54.7818 40.7827 54.8215 40.8359 54.8509 40.8879C54.8797 40.939 54.9013 40.9939 54.9013 41.0463C54.9013 41.134 54.872 41.2333 54.8382 41.3186C54.8041 41.4049 54.7631 41.4823 54.7351 41.5282C54.7281 41.5396 54.7169 41.5689 54.7099 41.6226C54.7031 41.6748 54.7006 41.7461 54.7076 41.8382C54.7217 42.0223 54.7731 42.2873 54.8982 42.6462C55.0231 43.0044 55.2764 43.4671 55.553 44.0362C55.6052 44.1435 55.6575 44.2545 55.7103 44.3688C55.4365 44.3914 55.1408 44.411 54.8365 44.4268L54.0371 42.2972L53.6517 41.5393L52.4859 40.7751L43.9336 36.1229C43.7868 36.2419 43.6027 36.3207 43.3738 36.3243V36.3546C42.9489 36.384 42.3213 36.365 42.1661 36.3506C42.0596 36.3321 41.9385 36.3119 41.825 36.2988C41.7636 36.2917 41.699 36.2861 41.6368 36.2848V30.8694C41.665 30.8828 41.6982 30.8894 41.733 30.8862C42.086 30.8545 42.4511 30.8438 42.7494 30.8464C42.8986 30.8477 43.0298 30.8524 43.1334 30.8592C43.2412 30.8663 43.3078 30.875 43.335 30.8816C43.4493 30.9093 43.553 30.9422 43.6656 30.9793C43.6561 30.9916 43.6467 31.0041 43.6368 31.0165C44.1217 31.3523 44.525 31.8708 44.5582 32.6319V32.8015L44.5813 32.7825C44.6562 32.7212 46.078 31.8147 47.6567 30.3269L47.6616 30.3222L47.6676 30.3184L48.7693 29.6089L51.0533 27.7371L51.5136 27.2969L51.7459 26.5992L52.2193 25.1116L52.6922 23.3026L52.6933 23.2985L52.695 23.2947L52.8628 22.9015ZM61.235 32.9261C61.1483 32.9183 61.0703 32.9696 61.0607 33.0406C61.0512 33.1116 61.1138 33.1756 61.2005 33.1834C61.2394 33.1869 61.2995 33.2009 61.3807 33.2249C61.4607 33.2485 61.5442 33.2763 61.6341 33.3047C61.8099 33.3603 62.0308 33.4818 62.1758 33.5801C62.2268 33.6147 62.2756 33.6719 62.3219 33.7526C62.3675 33.8324 62.4055 33.9256 62.4415 34.0239C62.4806 34.1304 62.4554 34.2132 62.3985 34.2915C62.3356 34.3783 62.2415 34.4509 62.1379 34.5389C62.0841 34.5845 61.9914 34.6359 61.8108 34.711C61.6323 34.7853 61.384 34.8765 61.0307 35.0064C60.8652 35.0672 60.7101 35.1144 60.5622 35.1578C60.4161 35.2006 60.2721 35.2411 60.1387 35.2859C60.0783 35.3062 59.9996 35.3204 59.9005 35.3356C59.8071 35.3499 59.6948 35.3652 59.5908 35.3887C59.4879 35.4119 59.3721 35.4328 59.2545 35.4538C59.1391 35.4744 59.0204 35.4954 58.9197 35.5181C58.8306 35.5382 58.7302 35.5508 58.6153 35.5641C58.5037 35.5771 58.3787 35.5907 58.2555 35.6138C57.9646 35.6682 57.6782 35.7097 57.3761 35.7526C57.1641 35.7826 56.9802 35.8155 56.8092 35.8466C56.6374 35.8778 56.4802 35.9069 56.316 35.9308C56.1918 35.9488 56.0796 35.953 55.8679 35.954C55.657 35.955 55.3521 35.9531 54.8553 35.9612C53.9068 35.9767 52.046 35.9666 51.0091 35.9506C50.4147 35.9414 50.0655 35.9188 49.8494 35.8962C49.6291 35.8733 49.5594 35.8529 49.4696 35.8395C49.1156 35.7867 48.8568 35.7432 48.5864 35.6853C48.3228 35.6289 48.1702 35.5772 48.0148 35.5239C47.8742 35.4757 47.7236 35.4051 47.575 35.3135C47.5038 35.2697 47.404 35.1815 47.2801 35.0712C47.1632 34.9672 47.029 34.8476 46.9034 34.7621C46.7004 34.6239 46.4825 34.5864 46.2989 34.5299L46.2872 34.5264L46.275 34.5243L46.2423 34.5195C46.2097 34.5155 46.1777 34.5133 46.1504 34.5117C46.1096 34.5093 46.0826 34.5085 46.0566 34.5061C46.0145 34.5024 45.9887 34.4955 45.9504 34.485C45.8677 34.4625 45.7783 34.499 45.7507 34.5668C45.7231 34.6346 45.7678 34.7079 45.8504 34.7305C45.8925 34.742 45.9451 34.7565 46.0225 34.7635C46.0563 34.7665 46.0983 34.7682 46.128 34.7699C46.1577 34.7716 46.1825 34.7738 46.2031 34.7767C46.4307 34.8457 46.5561 34.8622 46.7015 34.9611C46.8076 35.0333 46.9267 35.1387 47.0479 35.2465C47.162 35.3481 47.2852 35.4587 47.3853 35.5204C47.5528 35.6236 47.726 35.7054 47.8929 35.7627C48.0537 35.8178 48.222 35.8749 48.5067 35.9358L48.6119 35.9577C48.8565 36.0073 49.1005 36.0475 49.4131 36.0942C49.4676 36.1023 49.5827 36.1293 49.8096 36.1529C50.0409 36.177 50.4021 36.2002 51.003 36.2094C52.0418 36.2255 53.9073 36.2355 54.8617 36.2199C55.3555 36.2119 55.6549 36.2139 55.8697 36.2128C56.0837 36.2118 56.2188 36.2078 56.3712 36.1857C56.5435 36.1607 56.708 36.1302 56.8776 36.0993C57.0481 36.0684 57.2257 36.0366 57.4299 36.0076C57.7317 35.9648 58.0258 35.9223 58.3258 35.8662C58.4333 35.8461 58.5436 35.8339 58.6595 35.8204C58.7723 35.8073 58.892 35.7928 59.0034 35.7677C59.0941 35.7473 59.2034 35.7278 59.3217 35.7067C59.4379 35.6859 59.562 35.6637 59.6745 35.6383C59.762 35.6186 59.8555 35.6058 59.9586 35.59C60.0559 35.5751 60.1645 35.5569 60.2585 35.5253C60.3831 35.4834 60.5164 35.4462 60.6686 35.4016C60.8189 35.3575 60.9831 35.3075 61.1599 35.2426C61.51 35.1139 61.7668 35.0196 61.9538 34.9418C62.1387 34.8649 62.2722 34.7974 62.365 34.7186C62.4522 34.6446 62.5829 34.5437 62.6699 34.4239C62.763 34.2956 62.813 34.1382 62.7439 33.9496C62.7069 33.8484 62.6636 33.7404 62.6078 33.6428C62.5525 33.5463 62.4794 33.4501 62.3771 33.3807C62.219 33.2736 61.968 33.1329 61.7476 33.0632C61.666 33.0374 61.5718 33.0061 61.4877 32.9813C61.4049 32.9569 61.3141 32.9332 61.235 32.9261ZM60.7074 34.2661C60.6517 34.2112 60.5521 34.2038 60.4851 34.2495C60.4105 34.3003 60.3819 34.3149 60.3438 34.3305C60.2981 34.3491 60.2389 34.3686 60.1878 34.3843L60.1868 34.3847C60.0834 34.4171 59.954 34.4461 59.8073 34.4787C59.6642 34.5106 59.5066 34.5455 59.3604 34.5887C59.1252 34.6581 58.8813 34.7258 58.5852 34.7661C58.3173 34.8026 57.8798 34.8523 57.5889 34.9078C57.3938 34.945 57.1474 35.006 56.5122 35.0178C56.2171 35.0232 55.937 35.043 55.6794 35.0629C55.4198 35.0829 55.187 35.1027 54.977 35.1095C54.7249 35.1177 54.4774 35.1402 54.2175 35.1611C53.9561 35.1821 53.6767 35.2018 53.351 35.2064C52.2215 35.2224 51.5182 35.2225 51.4667 35.2225C51.3796 35.2225 51.3088 35.2804 51.3088 35.3519C51.3088 35.4234 51.3796 35.4813 51.4667 35.4813C51.5195 35.4813 52.2247 35.4813 53.3564 35.4653C53.6948 35.4605 53.9841 35.4398 54.2482 35.4186C54.5139 35.3973 54.7491 35.3759 54.9895 35.3681C55.2105 35.3609 55.4548 35.3402 55.709 35.3206C55.9655 35.3008 56.2362 35.2817 56.5193 35.2765C57.1871 35.2641 57.4587 35.1984 57.6604 35.1599C57.9382 35.1069 58.3529 35.06 58.6369 35.0214C58.9623 34.9772 59.2282 34.9028 59.4674 34.8322C59.5995 34.7932 59.7443 34.761 59.89 34.7286C60.0317 34.697 60.1774 34.6645 60.2985 34.6266L60.2986 34.6267C60.3529 34.6101 60.4241 34.5868 60.4846 34.5621C60.5526 34.5344 60.6023 34.5062 60.6871 34.4484C60.7541 34.4027 60.7632 34.3211 60.7074 34.2661ZM60.7372 33.1897C60.6755 33.1392 60.5756 33.1392 60.5139 33.1897C60.4476 33.244 60.3884 33.2922 60.3414 33.3262C60.178 33.4229 59.9066 33.5442 59.677 33.6549C59.5275 33.7262 59.0266 33.9288 58.5601 34.024C58.3048 34.0761 57.8978 34.2266 57.0147 34.263C56.5 34.2842 56.1617 34.2842 56.0067 34.2842C55.9195 34.2842 55.8488 34.3422 55.8488 34.4136C55.8488 34.4851 55.9195 34.543 56.0067 34.5431C56.1643 34.5431 56.5084 34.5431 57.0306 34.5216C57.9545 34.4835 58.416 34.3202 58.6364 34.2752C59.1401 34.1725 59.669 33.9583 59.8359 33.8788L59.8366 33.8784C60.0505 33.7752 60.3541 33.6393 60.5336 33.5319L60.5392 33.5286L60.5444 33.5248C60.6021 33.4835 60.6715 33.4266 60.7372 33.3727C60.7989 33.3222 60.7989 33.2403 60.7372 33.1897ZM59.2833 32.5694C58.5068 32.5694 57.7461 32.5694 57.2422 32.5917C56.733 32.6141 56.4899 32.6581 56.3453 32.6795C56.2034 32.7006 56.1482 32.7011 55.0537 32.8773C53.96 33.0534 51.8883 33.3951 50.8257 33.5714C49.7658 33.7473 49.7086 33.7589 49.652 33.7705C49.5674 33.7878 49.516 33.858 49.5371 33.9273C49.5583 33.9966 49.6439 34.0388 49.7285 34.0215C49.7761 34.0117 49.8234 34.0018 50.8883 33.8251C51.9508 33.6487 54.0219 33.3071 55.1146 33.1312C56.2058 32.9555 56.2553 32.956 56.4015 32.9343C56.545 32.913 56.7713 32.8717 57.2592 32.8501C57.7525 32.8284 58.5029 32.8283 59.2833 32.8283C59.3705 32.8283 59.4412 32.7703 59.4412 32.6989C59.4412 32.6274 59.3705 32.5694 59.2833 32.5694Z" fill="#A2AAAD"/>
<path d="M42.7997 29.042C42.8019 29.0426 42.8041 29.0432 42.8063 29.0438C42.8048 29.0479 42.8035 29.052 42.8025 29.0559C42.796 29.0514 42.7899 29.0466 42.784 29.0418C42.7937 29.0413 42.7989 29.042 42.7997 29.042Z" fill="#A2AAAD"/>
<path fill-rule="evenodd" clip-rule="evenodd" d="M42.3449 19.6439C42.0951 20.4372 42.0026 21.9552 41.9901 23.5381C41.9776 25.1152 42.0443 26.7478 42.1099 27.7718L42.2008 28.0939C42.4225 27.6135 42.7427 27.1694 43.1322 26.7609C43.2207 26.7706 43.3099 26.7848 43.3948 26.8037C43.5335 26.8508 43.7108 26.9244 43.8736 26.9987C43.3757 27.4451 43.0514 27.8287 42.7952 28.1388C42.6596 28.303 42.5406 28.4497 42.4234 28.5746C42.7344 28.613 43.1452 28.6829 43.51 28.7859C43.7223 28.8458 43.9228 28.9179 44.0796 29.0032C44.2346 29.0876 44.3592 29.1914 44.3979 29.3183L44.4002 29.326V29.334C44.4002 29.4074 44.3784 29.5208 44.3134 29.6307C44.2567 29.7268 44.1652 29.8227 44.0244 29.8852C44.0543 29.9756 44.0634 30.1089 44.0258 30.2752C43.995 30.4114 43.9325 30.5715 43.8226 30.7519C43.6911 30.7085 43.5607 30.6664 43.4246 30.6334C43.3627 30.6183 43.2668 30.6082 43.1586 30.6011C43.0461 30.5938 42.9073 30.5889 42.7528 30.5876C42.4439 30.5849 42.0659 30.5959 41.6985 30.6289C41.676 30.631 41.6552 30.6369 41.6368 30.6456V30.5659L41.6317 30.4166C41.6284 30.2708 41.6304 30.1355 41.6368 30.0102V19.563H42.3704L42.3449 19.6439ZM42.8967 28.7957C42.7995 28.77 42.692 28.7862 42.6227 28.81C42.5987 28.8183 42.577 28.8286 42.5578 28.8406C42.5319 28.8254 42.5001 28.8163 42.4658 28.8163C42.3787 28.8163 42.3079 28.8743 42.3079 28.9457C42.3079 28.9696 42.3081 29.0391 42.322 29.1425C42.3325 29.2212 42.3823 29.2809 42.4279 29.3225C42.4722 29.3629 42.5268 29.3985 42.5615 29.4222C42.6614 29.4906 42.7827 29.5138 42.8805 29.5264C42.9299 29.5327 42.9822 29.5372 43.0258 29.5415C43.0718 29.546 43.1119 29.5507 43.1484 29.5573C43.3453 29.5929 43.5177 29.6146 43.7205 29.6091C43.819 29.6065 43.8759 29.5519 43.9008 29.5184C43.9263 29.484 43.9383 29.4471 43.9438 29.4215C43.9762 29.2687 43.8425 29.158 43.749 29.0989C43.645 29.0331 43.5185 28.9845 43.4354 28.956C43.2762 28.9014 43.0837 28.8452 42.8967 28.7957Z" fill="#A2AAAD"/>
<path d="M45.392 25.0855C45.7048 25.188 45.973 25.2839 46.1872 25.3702C45.2732 25.8948 44.604 26.3761 44.0968 26.8045C43.9024 26.7133 43.678 26.6189 43.5054 26.561L43.4966 26.5581L43.4875 26.5561L43.4098 26.5398C43.3941 26.5367 43.3783 26.5339 43.3624 26.5312C43.941 25.9805 44.6437 25.4991 45.392 25.0855Z" fill="#A2AAAD"/>
<path d="M48.2257 23.8588C48.4105 23.91 48.6127 23.9788 48.8119 24.0686C47.9031 24.4641 47.1352 24.8432 46.483 25.2034C46.2794 25.115 46.0189 25.0173 45.7132 24.9133C46.5395 24.4842 47.4097 24.1333 48.2257 23.8588Z" fill="#A2AAAD"/>
<path d="M50.5133 23.3747C50.0248 23.5618 49.5684 23.7461 49.1414 23.927C48.982 23.8445 48.8178 23.7757 48.658 23.7185C49.3302 23.509 49.9512 23.3543 50.4611 23.2531L50.5133 23.3747Z" fill="#A2AAAD"/>
<path d="M58.9479 16.6563C59.1186 16.7487 59.2935 16.8453 59.471 16.945L57.8658 17.8053L57.8647 17.8058L56.3703 18.5793L55.5939 19.1521L55.208 19.658L54.8173 20.3625L54.6993 20.6937C54.6224 20.6704 54.5443 20.6472 54.465 20.6248C54.2704 20.5699 54.0483 20.5027 53.8086 20.4271L53.9518 20.0746L53.8757 19.6368L53.8741 19.6283L53.8755 19.6196L53.9545 19.1019L53.9578 19.0799L54.457 18.6708L54.4646 18.6669L55.0962 18.3434L55.1069 18.3379L55.119 18.3354L55.7379 18.2085L57.0692 17.5026L57.0721 17.5011L57.075 17.4999L58.4142 16.9188L58.9479 16.6563Z" fill="#A2AAAD"/>
<path d="M66.0864 12.1052L65.3814 12.6188L64.6759 13.3897L64.6726 13.3934L64.4318 13.5908L64.4291 13.5928L64.4265 13.5947L63.9528 13.9183L63.3324 14.363L63.0232 14.8066L63.0166 14.8162L63.0064 14.8234L62.2309 15.3741C62.0364 15.2578 61.8418 15.1438 61.6489 15.0327L61.9649 14.9133L62.4232 14.6002L62.8906 14.0896L63.3628 13.5092L63.3683 13.5022L63.376 13.4966L64.0866 12.979L64.0902 12.9764L64.094 12.9742L65.1205 12.3918L65.124 12.3899L65.1277 12.3883L65.9962 12L66.0864 12.1052Z" fill="#A2AAAD"/>
<path d="M24.3485 66.9474C23.8434 67.3551 23.4322 67.7269 23.0874 68.113C22.2177 69.0871 21.7714 70.1498 21.2903 72.0936C21.1704 72.5779 21.0818 72.8793 21.0367 73.0254C21.0255 73.062 21.0168 73.0889 21.0111 73.1066C21.0084 73.1153 21.0062 73.1221 21.0048 73.1266C21.0041 73.1287 21.0035 73.1309 21.003 73.1326C21.0028 73.1332 21.0023 73.1351 21.0019 73.137C21.0016 73.1385 21.0008 73.1429 21.0005 73.146C21.0019 73.1613 21.0656 73.2126 21.1356 73.1944C21.1431 73.1872 21.1508 73.1769 21.1521 73.1746C21.1527 73.1735 21.1534 73.1717 21.1538 73.1709C21.1543 73.1697 21.1549 73.1685 21.1552 73.1678C21.1559 73.1661 21.1566 73.1639 21.1575 73.1617C21.1593 73.1571 21.162 73.1502 21.1654 73.1416C21.1721 73.1242 21.182 73.0986 21.1954 73.065C21.303 72.7964 21.6343 72.0189 22.2883 70.9546C22.9022 69.9556 23.8003 68.7042 25.0644 67.384C24.8903 67.2858 24.7232 67.1909 24.5708 67.1022L24.4765 67.0473L24.3931 66.9819C24.3784 66.9703 24.3634 66.9588 24.3485 66.9474Z" stroke="#A2AAAD" stroke-width="0.830078"/>
<path d="M31.1001 60.9578C30.0194 62.3221 28.7543 63.6629 27.3766 64.6817C27.1456 64.8525 26.9245 65.015 26.7129 65.1704C26.8516 65.2488 27.009 65.3375 27.1763 65.4315C28.2332 64.5651 29.4586 63.7069 30.8748 62.9065L30.8895 62.8981L32.0166 61.3022C31.6927 61.1897 31.3871 61.0741 31.1001 60.9578Z" stroke="#A2AAAD" stroke-width="0.830078"/>
<path d="M20.3152 54.7582C18.7284 56.4273 17.3575 58.4066 17.0017 60.5148L17 60.5251L17.0023 60.5355C17.0093 60.5661 17.0223 60.6027 17.0452 60.6319C17.0568 60.6468 17.0739 60.6635 17.0987 60.675C17.1256 60.6875 17.1575 60.6919 17.1901 60.685C17.2204 60.6787 17.2456 60.664 17.266 60.6475C17.2868 60.6308 17.3064 60.6091 17.3255 60.5833C17.3637 60.5317 17.405 60.4563 17.4501 60.351C17.5402 60.1409 17.9067 58.839 19.3847 56.9331C19.8295 56.3594 20.3755 55.7312 21.0446 55.0617C20.7868 54.9609 20.542 54.8595 20.3152 54.7582Z" stroke="#A2AAAD" stroke-width="0.830078"/>
<path d="M35.1811 52.3196L35.0673 52.3396L34.9514 52.3457C34.7134 52.3582 34.5546 52.3767 34.4474 52.3955V55.7223C34.0973 56.4465 33.5001 57.5243 32.7123 58.7221C32.9033 58.7964 33.1043 58.8704 33.3151 58.9426L33.328 58.947L33.341 58.9517C33.4318 58.9843 33.5209 59.0167 33.6082 59.0486L35.9254 55.7675L35.9392 55.7479L35.9351 55.7254C35.7561 54.7623 35.5392 53.5474 35.3272 52.2942C35.2793 52.3025 35.2307 52.3109 35.1811 52.3196Z" stroke="#A2AAAD" stroke-width="0.830078"/>
<path d="M27.207 48.0132L26.6173 49.1747C26.579 49.2421 26.5231 49.3534 26.4763 49.4745C26.4316 49.5903 26.3937 49.7205 26.3903 49.831C26.3887 49.8327 26.3868 49.8349 26.3843 49.8373C26.3711 49.8499 26.3498 49.8677 26.3195 49.891C26.2592 49.9375 26.1695 50.0012 26.0533 50.082C25.8223 50.2426 25.4876 50.4697 25.0852 50.7525C24.3733 51.2528 23.4437 51.932 22.4675 52.7505C22.7274 52.8509 23.009 52.9527 23.3052 53.0537C24.5744 52.0438 26.1171 50.9806 27.9924 49.8996L28.0181 49.8847L28.0244 49.8594L28.2462 48.9535L28.247 48.9501L28.2474 48.9468C28.272 48.7314 28.3126 48.3953 28.3544 48.0873C28.3966 47.7771 28.4391 47.5014 28.4673 47.4025C28.4832 47.3469 28.524 47.1916 28.5791 46.979C28.2324 46.9543 27.8941 46.9236 27.5806 46.8869L27.207 48.0132Z" stroke="#A2AAAD" stroke-width="0.830078"/>
<path d="M41.6282 46.1914C41.4146 46.1931 41.1418 46.1981 40.8921 46.2072C40.7372 46.2129 40.5926 46.22 40.4775 46.2285C40.3659 46.2369 40.299 46.2458 40.2728 46.2516C40.2403 46.2652 40.2063 46.2817 40.1715 46.2998C40.0878 46.9193 40.0525 47.7267 40.1831 48.4121C40.2587 48.8087 40.3908 49.1712 40.6076 49.4328C40.827 49.6974 41.1356 49.8607 41.5525 49.8467L41.6282 49.844V46.1914Z" stroke="#A2AAAD" stroke-width="0.830078"/>
<path d="M41.6282 36.5436C41.5914 36.5446 41.5456 36.5481 41.4911 36.5548C41.3937 36.5668 41.2864 36.5861 41.1844 36.605L41.177 36.6064L41.1696 36.6072C41.0148 36.6234 40.4167 36.6436 39.9917 36.6145V37.7057L35.7929 42.4968L35.7914 42.4986L35.79 42.5003L34.4605 44.2458L33.3539 45.4728L33.3314 45.4978L33.3411 45.5279L33.7834 46.8822L34.2914 49.7966C34.4047 49.7855 34.517 49.7769 34.6274 49.77C34.7245 49.7531 34.8187 49.7369 34.9114 49.7212C34.8803 49.5164 34.8498 49.3149 34.8209 49.1174C34.6629 48.0376 34.5426 47.0839 34.4949 46.4266C34.471 46.0971 34.4658 45.8455 34.4821 45.6903C34.4873 45.6406 34.4949 45.6052 34.5022 45.5815L34.5424 45.6129L39.9917 38.3934V38.5185C39.9054 39.07 39.8131 39.8958 39.8162 40.5855C39.8178 40.9305 39.8431 41.2457 39.907 41.4762C39.9389 41.591 39.9817 41.6902 40.0404 41.7621C40.0526 41.7771 40.066 41.7909 40.0802 41.8038L40.112 41.7981C40.2108 41.781 40.3325 41.7623 40.5311 41.7379L40.5429 41.7363H40.5546C41.1363 41.7366 41.4399 41.7474 41.6282 41.7669V36.5436Z" stroke="#A2AAAD" stroke-width="0.830078"/>
<path d="M40.5669 41.9952C40.3522 42.0217 40.2345 42.041 40.1342 42.059C39.982 42.5562 39.8252 43.2407 39.7738 43.9251C39.7434 44.3302 39.7497 44.737 39.8165 45.1058C39.8781 45.4454 39.9922 45.7562 40.1794 46.0042L40.1863 46.0024C40.252 45.9877 40.3494 45.9783 40.4489 45.9709C40.571 45.9618 40.7209 45.9545 40.8781 45.9487C41.1327 45.9394 41.4106 45.9341 41.6282 45.9324V42.028C41.4791 42.0094 41.203 41.9956 40.5669 41.9952Z" stroke="#A2AAAD" stroke-width="0.830078"/>
<path fill-rule="evenodd" clip-rule="evenodd" d="M31.1208 22.9108C30.9509 22.9665 30.7894 23.0178 30.6392 23.0631C30.5002 23.105 30.3627 23.151 30.2232 23.2007L30.3103 23.4626L30.3111 23.4646L30.3118 23.4667L31.0511 25.2139L31.863 27.54L31.8635 27.5415L31.8643 27.543L32.2569 28.4882L32.3563 28.0527L33.4321 29.0533L33.4323 29.0532L35.4279 30.9295L35.4308 30.9323L35.434 30.9348L36.4663 31.7093L37.4186 32.6068L37.8581 33.2482L37.8604 33.2515L37.863 33.2546L38.3805 33.8369L38.3859 33.8431L38.393 33.8481L38.8829 34.1911V34.2965C36.1812 33.685 32.1123 32.9255 28.5562 32.607C26.7566 32.4458 25.0836 32.3971 23.784 32.5391C23.1343 32.6101 22.5736 32.7291 22.1359 32.908C21.6994 33.0865 21.3804 33.3267 21.2226 33.6416C21.1053 33.8192 21.0968 34.0484 21.2656 34.2976C21.4338 34.5458 21.7769 34.8136 22.3623 35.0801C23.5335 35.6131 25.7021 36.1536 29.4902 36.5163L29.4933 36.5165L29.4964 36.5167C30.8789 36.5599 32.9358 36.5372 34.6121 36.3282C35.4491 36.2239 36.1984 36.0723 36.7219 35.8558C36.9837 35.7475 37.1947 35.6206 37.3308 35.4711C37.4567 35.3327 37.517 35.1762 37.4954 35.0026C37.7132 34.9215 38.026 34.826 38.3148 34.7814C38.4715 34.7572 38.616 34.7487 38.7324 34.7631C38.84 34.7764 38.9143 34.8079 38.9584 34.8565C38.9734 35.1089 39.0412 35.4751 39.2017 35.7773C39.2066 35.7866 39.212 35.7957 39.2171 35.8049H39.1651L39.1486 35.8116C38.8274 35.9413 38.3344 36.149 37.8991 36.3503C37.6816 36.451 37.4774 36.5505 37.3159 36.6383C37.2352 36.6821 37.1641 36.7236 37.1071 36.7612C37.0514 36.7979 37.004 36.8341 36.9752 36.8678C36.9599 36.8857 36.9228 36.9158 36.8602 36.9576C36.7994 36.9982 36.7201 37.0463 36.6262 37.1001C36.4387 37.2075 36.1961 37.3359 35.9335 37.4696C35.5398 37.6702 35.103 37.882 34.7432 38.0526L34.4135 38.2076L34.411 38.2086L34.4087 38.2098L32.2683 39.3727C31.8462 39.5465 30.9431 39.9139 30.6512 40.0161C30.4254 40.0952 30.0754 40.2521 29.8211 40.371L29.6069 40.473L29.5972 40.4777L29.5897 40.4844C29.5256 40.5405 29.4301 40.634 29.3502 40.7342C29.3102 40.7844 29.273 40.8375 29.2456 40.8893C29.2187 40.9403 29.1987 40.9948 29.1987 41.0463C29.1987 41.1334 29.2259 41.2323 29.2575 41.3175C29.2894 41.4036 29.3279 41.4809 29.354 41.5267C29.3607 41.5384 29.3713 41.5683 29.3779 41.6222C29.3844 41.6747 29.3865 41.7462 29.3799 41.8385C29.3668 42.023 29.3186 42.2882 29.2014 42.6473C29.0844 43.0057 28.8471 43.4687 28.5882 44.0376C28.5397 44.1441 28.4911 44.2543 28.442 44.3677C28.6997 44.3907 28.9798 44.4106 29.2691 44.4267L30.0179 42.2964L30.3791 41.5377L31.4692 40.7744L39.4717 36.1251C39.608 36.2417 39.7789 36.3196 39.9917 36.3242V36.3541C40.3873 36.3841 40.9781 36.3652 41.1244 36.3509C41.2238 36.3324 41.3374 36.312 41.4441 36.2989C41.5034 36.2916 41.5669 36.2857 41.6282 36.2846V30.8694C41.5997 30.8829 41.566 30.8895 41.5309 30.8861C41.2013 30.8545 40.8603 30.8438 40.5816 30.8464C40.4423 30.8477 40.3199 30.8523 40.2235 30.8591C40.1227 30.8661 40.0623 30.8748 40.0389 30.8808C39.929 30.9093 39.8301 30.9432 39.7211 30.9815C39.7295 30.9932 39.7379 31.0051 39.7467 31.0169C39.2913 31.3532 38.914 31.8717 38.8829 32.632V32.7939L38.8717 32.784C38.8011 32.7223 37.4702 31.8164 35.9921 30.3285L35.9874 30.3237L34.9501 29.6103L32.8119 27.7385L32.3809 27.2986L32.1633 26.6002L31.7207 25.1152L31.2761 23.2995L31.2747 23.296L31.1208 22.9108ZM23.2712 32.9262C23.3578 32.9179 23.4364 32.9686 23.4466 33.0396C23.4568 33.1106 23.3947 33.1749 23.3081 33.1833C23.2742 33.1866 23.2196 33.1999 23.1436 33.2239C23.0689 33.2474 22.9914 33.2752 22.9068 33.3037C22.7444 33.3586 22.5386 33.4791 22.4029 33.5773C22.356 33.6113 22.3103 33.6684 22.2667 33.7497C22.2238 33.8298 22.188 33.9233 22.1543 34.0217C22.0811 34.2353 22.2413 34.3627 22.439 34.542C22.4885 34.587 22.5742 34.6376 22.7428 34.7125C22.9095 34.7866 23.1415 34.8779 23.4725 35.0078C23.6269 35.0684 23.7716 35.1155 23.91 35.1588C24.0464 35.2015 24.1819 35.2421 24.3072 35.2871C24.362 35.3067 24.434 35.3208 24.5268 35.336C24.6137 35.3502 24.72 35.3656 24.8183 35.3893C24.914 35.4124 25.0219 35.4331 25.1321 35.4542C25.24 35.4747 25.3517 35.4959 25.4467 35.5187C25.5287 35.5385 25.6215 35.5509 25.7292 35.5642C25.8334 35.5772 25.9513 35.591 26.0677 35.6143C26.3395 35.6686 26.6071 35.7099 26.8901 35.7528C27.089 35.783 27.2615 35.816 27.4216 35.8471C27.5827 35.8783 27.7293 35.9072 27.8826 35.931C27.9971 35.9488 28.1007 35.953 28.2988 35.954C28.496 35.955 28.7818 35.9531 29.2472 35.9612C30.1348 35.9767 31.8768 35.9666 32.8476 35.9506C33.4037 35.9414 33.7297 35.9188 33.9311 35.8964C34.137 35.8735 34.1993 35.8535 34.2857 35.8398C34.6169 35.787 34.8586 35.7435 35.1111 35.6858C35.3568 35.6297 35.4988 35.5783 35.6441 35.5251C35.7744 35.4774 35.9145 35.4072 36.0532 35.316C36.1192 35.2726 36.2122 35.1848 36.3285 35.0744C36.4378 34.9704 36.5637 34.8505 36.6818 34.7647C36.8736 34.6253 37.0815 34.5868 37.2513 34.531L37.2634 34.527L37.2764 34.5246L37.308 34.5198C37.3394 34.5156 37.37 34.5134 37.3957 34.5118C37.4346 34.5094 37.4588 34.5085 37.4826 34.5063C37.5198 34.5027 37.5423 34.4963 37.5782 34.4858C37.6603 34.4618 37.7506 34.4971 37.7799 34.5644C37.8091 34.6317 37.7663 34.7058 37.6841 34.7297C37.6446 34.7413 37.5939 34.7562 37.5191 34.7633C37.487 34.7664 37.4466 34.7682 37.4195 34.7699C37.3925 34.7716 37.3706 34.7737 37.3526 34.7764C37.1388 34.8455 37.0253 34.8609 36.8913 34.9584C36.7924 35.0303 36.6812 35.1354 36.5676 35.2433C36.461 35.3447 36.3452 35.4558 36.2509 35.5179C36.0935 35.6214 35.9306 35.7037 35.773 35.7614C35.6223 35.8166 35.4638 35.874 35.1959 35.9352C34.9318 35.9956 34.6807 36.0405 34.3459 36.0938C34.2972 36.1016 34.1866 36.1291 33.9737 36.1528C33.7562 36.177 33.4171 36.2001 32.854 36.2094C31.8813 36.2255 30.1343 36.2355 29.2404 36.2199C28.7782 36.2119 28.4982 36.2139 28.2968 36.2128C28.0963 36.2118 27.9684 36.2078 27.824 36.1854C27.6621 36.1603 27.5075 36.1298 27.3488 36.099C27.1893 36.068 27.0234 36.0363 26.8327 36.0073C26.5502 35.9645 26.2744 35.9221 25.9929 35.8658C25.8932 35.8459 25.7909 35.8337 25.682 35.8202C25.5765 35.8071 25.4632 35.7925 25.3575 35.7671C25.2732 35.7468 25.1715 35.7275 25.0605 35.7063C24.9518 35.6856 24.8351 35.6632 24.7291 35.6377C24.6482 35.6182 24.5619 35.6057 24.4648 35.5898C24.3737 35.5748 24.2703 35.5564 24.1805 35.5242C24.0643 35.4825 23.9401 35.4453 23.7972 35.4006C23.6564 35.3565 23.5021 35.3064 23.336 35.2412C23.0083 35.1126 22.7677 35.0181 22.5923 34.9402C22.4186 34.863 22.2922 34.7951 22.2046 34.7156C22.0448 34.5707 21.721 34.3286 21.8502 33.9517C21.8848 33.8506 21.9255 33.743 21.9776 33.6457C22.029 33.5498 22.0971 33.4533 22.1938 33.3833C22.3419 33.2761 22.5781 33.1347 22.7866 33.0644C22.8625 33.0387 22.9514 33.0071 23.0304 32.9822C23.1079 32.9578 23.1947 32.9336 23.2712 32.9262ZM23.763 34.263C23.8209 34.2096 23.9208 34.2047 23.986 34.2521C24.0557 34.3028 24.0817 34.3171 24.1162 34.3321C24.1582 34.3505 24.2131 34.3697 24.2608 34.3853L24.2619 34.3857C24.3578 34.4178 24.4779 34.4466 24.6155 34.4794C24.7494 34.5112 24.8976 34.5463 25.0352 34.5897C25.2554 34.6591 25.4824 34.7264 25.7579 34.7664C26.0077 34.8027 26.4187 34.8526 26.6919 34.9083C26.8742 34.9454 27.1034 35.0061 27.696 35.0178C27.973 35.0232 28.2359 35.0431 28.477 35.063C28.7205 35.0831 28.9378 35.1027 29.1337 35.1095C29.3705 35.1177 29.603 35.1403 29.846 35.1611C30.0906 35.182 30.3515 35.2018 30.6556 35.2064C31.7125 35.2224 32.3709 35.2225 32.4194 35.2225C32.5066 35.2225 32.5773 35.2804 32.5773 35.3519C32.5773 35.4234 32.5066 35.4813 32.4194 35.4813C32.3695 35.4813 31.7091 35.4813 30.6497 35.4653C30.332 35.4605 30.0605 35.4397 29.8131 35.4185C29.564 35.3972 29.3445 35.3759 29.1202 35.3681C28.9126 35.3609 28.6831 35.34 28.4454 35.3204C28.2054 35.3006 27.9525 35.2817 27.6883 35.2765C27.0608 35.2641 26.805 35.198 26.6157 35.1594C26.3564 35.1066 25.9697 35.0599 25.7028 35.0212C25.3963 34.9766 25.1459 34.902 24.9217 34.8313C24.7989 34.7926 24.6641 34.7604 24.5276 34.728C24.3952 34.6965 24.2579 34.6638 24.1436 34.6256L24.1434 34.6257C24.0925 34.609 24.0251 34.5856 23.9678 34.5606C23.9029 34.5323 23.8558 34.5036 23.7763 34.4457C23.7111 34.3983 23.7051 34.3164 23.763 34.263ZM23.7362 33.1868C23.7998 33.138 23.8997 33.1406 23.9593 33.1928C24.0207 33.2465 24.0756 33.2942 24.1192 33.328C24.2715 33.4245 24.5252 33.5457 24.7412 33.657C24.8805 33.7279 25.3482 33.9298 25.7828 34.0245C26.0241 34.0771 26.4017 34.2269 27.2259 34.2631C27.7074 34.2843 28.0237 34.2842 28.1688 34.2842C28.256 34.2842 28.3267 34.3422 28.3267 34.4136C28.3267 34.4851 28.256 34.543 28.1688 34.5431C28.0211 34.5431 27.6984 34.5431 27.209 34.5216C26.3413 34.4834 25.9059 34.3192 25.7017 34.2747C25.228 34.1715 24.7312 33.9566 24.5745 33.8768L24.5738 33.8764C24.3742 33.7735 24.0888 33.6371 23.9202 33.5293L23.9148 33.5259L23.9097 33.522C23.8555 33.4806 23.7902 33.4235 23.7288 33.3697C23.6692 33.3175 23.6726 33.2357 23.7362 33.1868ZM25.1008 32.5694C25.8276 32.5694 26.5406 32.5694 27.0131 32.5917C27.4913 32.6142 27.7198 32.6585 27.8553 32.6799C27.9879 32.7009 28.0399 32.7013 29.065 32.8776C30.0891 33.0537 32.0289 33.3955 33.0238 33.5718C34.0155 33.7476 34.0699 33.7593 34.1234 33.771C34.2077 33.7894 34.2579 33.8603 34.2354 33.9293C34.2129 33.9984 34.1263 34.0394 34.042 34.021C33.9979 34.0113 33.9539 34.0015 32.957 33.8248C31.9622 33.6485 30.0231 33.3069 29.0001 33.131C27.9783 32.9552 27.9326 32.9556 27.7954 32.9339C27.6611 32.9127 27.4504 32.8715 26.9949 32.85C26.5337 32.8283 25.8317 32.8283 25.1008 32.8283C25.0136 32.8282 24.9429 32.7703 24.9429 32.6989C24.9429 32.6274 25.0136 32.5695 25.1008 32.5694Z" stroke="#A2AAAD" stroke-width="0.830078"/>
<path d="M40.5388 29.0417C40.5382 29.0418 40.5376 29.042 40.537 29.0422C40.5374 29.0431 40.5377 29.044 40.5381 29.045C40.5393 29.0438 40.5407 29.0428 40.5419 29.0417H40.5388Z" stroke="#A2AAAD" stroke-width="0.830078"/>
<path fill-rule="evenodd" clip-rule="evenodd" d="M40.9551 19.6428C41.1891 20.4367 41.2755 21.9552 41.2872 23.5381C41.2989 25.1156 41.2364 26.7487 41.175 27.7726L41.094 28.0801C40.8864 27.6049 40.5885 27.1653 40.2269 26.7607C40.1451 26.7702 40.0626 26.7841 39.9842 26.8026C39.8522 26.8506 39.6826 26.926 39.528 27.0016C39.9915 27.446 40.2939 27.828 40.533 28.1371C40.6606 28.3021 40.7726 28.4496 40.883 28.5749C40.5916 28.6135 40.2075 28.6835 39.866 28.7864C39.6668 28.8464 39.4785 28.9187 39.3311 29.0044C39.185 29.0893 39.0688 29.1933 39.0328 29.3192L39.0307 29.3265V29.334C39.0307 29.4068 39.0511 29.5196 39.1116 29.6292C39.1645 29.7248 39.2502 29.8213 39.3835 29.8844C39.3553 29.9743 39.3459 30.1074 39.3812 30.2744C39.41 30.4107 39.4688 30.5712 39.5723 30.7522C39.6946 30.709 39.8166 30.6669 39.9436 30.634C40.0036 30.6184 40.0953 30.6082 40.1967 30.6011C40.3026 30.5937 40.433 30.589 40.578 30.5876C40.868 30.5849 41.2226 30.596 41.5676 30.6291C41.5896 30.6312 41.6101 30.6368 41.6282 30.6454V30.5657L41.6328 30.4165C41.6359 30.2717 41.6341 30.1374 41.6282 30.0128V19.563H40.9315L40.9551 19.6428ZM40.4557 28.7919C40.5352 28.7741 40.6187 28.7843 40.6806 28.8024L40.7074 28.8113C40.7272 28.8185 40.7452 28.8272 40.7614 28.8371C40.786 28.824 40.8154 28.8163 40.847 28.8163C40.9341 28.8163 41.0049 28.8743 41.0049 28.9457C41.0049 28.9694 41.0047 29.0387 40.9918 29.1416C40.9821 29.2181 40.9367 29.2771 40.8934 29.3193C40.8516 29.36 40.8 29.3958 40.7677 29.4194C40.6718 29.4895 40.5548 29.5134 40.4617 29.5262C40.4151 29.5326 40.3655 29.5371 40.3251 29.5414C40.2822 29.5459 40.2454 29.5504 40.2122 29.5568C40.027 29.5926 39.8637 29.6147 39.6714 29.6091C39.5696 29.6062 39.5144 29.5467 39.4925 29.5152C39.469 29.4812 39.458 29.445 39.4531 29.4201C39.4237 29.2723 39.5449 29.1627 39.6353 29.1016C39.7338 29.035 39.8535 28.9858 39.9319 28.9571C40.0441 28.916 40.1737 28.8742 40.3055 28.8349L40.4374 28.7966L40.4557 28.7919Z" stroke="#A2AAAD" stroke-width="0.830078"/>
<path d="M38.1105 25.0857C37.8156 25.1891 37.5635 25.2855 37.3629 25.3721C38.2166 25.8958 38.8416 26.3764 39.3157 26.8042C39.4971 26.7134 39.7056 26.6198 39.8665 26.5621L39.8754 26.559L39.885 26.5567L39.9586 26.5401C39.9758 26.5366 39.9931 26.5334 40.0105 26.5302C39.4688 25.9802 38.8111 25.4992 38.1105 25.0857Z" stroke="#A2AAAD" stroke-width="0.830078"/>
<path d="M35.4567 23.8589C35.2833 23.9105 35.0935 23.9798 34.9067 24.0703C35.7554 24.4651 36.4727 24.8434 37.0821 25.2029C37.2741 25.1141 37.5192 25.016 37.8064 24.9118C37.0335 24.4835 36.2199 24.1331 35.4567 23.8589Z" stroke="#A2AAAD" stroke-width="0.830078"/>
<path d="M33.3083 23.374C33.7656 23.5611 34.1929 23.7454 34.5927 23.9263C34.7429 23.8436 34.8973 23.7747 35.0478 23.7175C34.4199 23.5087 33.8399 23.3544 33.3633 23.2534L33.3083 23.374Z" stroke="#A2AAAD" stroke-width="0.830078"/>
<path d="M25.4457 16.6709C25.2849 16.7644 25.1204 16.8622 24.9535 16.9629L26.4233 17.8042L26.4244 17.8048L26.4245 17.8047L27.8229 18.5778L28.5497 19.1503L28.9115 19.6569L29.2769 20.3607L29.3849 20.6846C29.4387 20.6675 29.4933 20.6506 29.5485 20.6339C29.7474 20.574 29.9774 20.4989 30.2267 20.4142L30.0975 20.0749L30.169 19.6363L30.1704 19.6282L30.1692 19.6201L30.0953 19.1024L30.0922 19.0813L29.631 18.6775L29.6247 18.6721L29.6171 18.6679L29.0257 18.3444L29.0149 18.3384L29.0023 18.3356L28.424 18.209L27.1788 17.5038L27.1758 17.5021L27.1726 17.5006L25.9169 16.9185L25.4457 16.6709Z" stroke="#A2AAAD" stroke-width="0.830078"/>
<path d="M18.7259 12.1036L19.3858 12.617L20.0463 13.3881L20.0495 13.3919L20.0532 13.3952L20.2751 13.5893L20.2776 13.5914L20.2802 13.5933L20.7225 13.9157L20.7223 13.9159L21.3041 14.3614L21.5937 14.8051L21.5999 14.8146L21.6096 14.822L22.3116 15.3545C22.4922 15.2398 22.6726 15.1274 22.8513 15.0179L22.5949 14.9144L22.1662 14.6016L21.7302 14.0929L21.2867 13.5108L21.2815 13.5038L21.2741 13.4982L20.6088 12.9805L20.6053 12.9777L20.6014 12.9753L19.6404 12.3929L19.6368 12.3909L18.82 12.0009L18.7259 12.1036Z" stroke="#A2AAAD" stroke-width="0.830078"/>
<path d="M60.0499 66.9222C60.6037 67.3391 61.0527 67.7179 61.4279 68.1114C62.3569 69.0856 62.8337 70.1487 63.3477 72.0929C63.4757 72.5771 63.5704 72.8784 63.6185 73.0244C63.6305 73.0609 63.6396 73.0877 63.6456 73.1054C63.6486 73.1142 63.651 73.121 63.6525 73.1255C63.6533 73.1277 63.654 73.1299 63.6545 73.1316C63.6547 73.1322 63.6553 73.1342 63.6558 73.1363C63.6561 73.1378 63.6569 73.1424 63.6572 73.1458C63.6556 73.1619 63.5924 73.2126 63.5239 73.1959C63.516 73.1887 63.5079 73.1783 63.5065 73.176C63.5059 73.1748 63.505 73.1731 63.5047 73.1723C63.504 73.171 63.5034 73.1696 63.5031 73.1689C63.5024 73.1672 63.5014 73.1651 63.5005 73.1628C63.4986 73.1582 63.4957 73.1514 63.4922 73.1429C63.485 73.1255 63.4744 73.0997 63.4601 73.0661C63.3452 72.7976 62.9914 72.0203 62.293 70.9563C61.6335 69.9514 60.6668 68.6911 59.304 67.3622C59.4601 67.2794 59.6097 67.1997 59.7473 67.1247L59.8422 67.073L59.927 67.0107C59.9676 66.9808 60.0086 66.9513 60.0499 66.9222Z" stroke="#A2AAAD" stroke-width="0.830078"/>
<path d="M52.8611 60.9459C54.0173 62.3138 55.3718 63.6588 56.8471 64.6803C57.1045 64.8585 57.3504 65.0278 57.5853 65.1894C57.4353 65.2686 57.2684 65.3567 57.0931 65.449C55.9594 64.577 54.6436 63.713 53.1214 62.9075L53.1065 62.8995L53.097 62.8871L51.8925 61.2902C52.2351 61.1775 52.5582 61.0621 52.8611 60.9459Z" stroke="#A2AAAD" stroke-width="0.830078"/>
<path d="M64.3767 54.7447C66.0765 56.4162 67.5469 58.4002 67.928 60.5142L67.93 60.5253L67.9274 60.5363C67.9198 60.5672 67.9059 60.6041 67.8813 60.6336C67.8562 60.6636 67.8062 60.6993 67.7348 60.6853C67.6773 60.6739 67.6318 60.6332 67.5935 60.5849C67.5526 60.5333 67.5084 60.4577 67.4601 60.3523C67.3639 60.142 66.9726 58.8405 65.3942 56.9347C64.9157 56.3569 64.3275 55.7239 63.6058 55.0489C63.8794 54.9477 64.1381 54.846 64.3767 54.7447Z" stroke="#A2AAAD" stroke-width="0.830078"/>
<path d="M48.5601 52.3231L48.6671 52.3406L48.7759 52.3459C49.0042 52.3572 49.1714 52.3735 49.2955 52.3916V55.7218C49.6711 56.4491 50.3127 57.5328 51.1593 58.7364C50.9761 58.8021 50.7847 58.8675 50.5851 58.9314L50.5726 58.9355L50.5601 58.9397C50.4407 58.9799 50.3235 59.0197 50.2093 59.0588L47.7127 55.7487L47.7173 55.7248C47.9085 54.7611 48.1405 53.5455 48.367 52.2917C48.4301 52.3019 48.4943 52.3122 48.5601 52.3231Z" stroke="#A2AAAD" stroke-width="0.830078"/>
<path d="M57.0285 48.0127L57.658 49.1733C57.6989 49.2407 57.7587 49.3522 57.8086 49.4733C57.8562 49.5888 57.8969 49.719 57.9008 49.8299C57.9024 49.8314 57.9042 49.8335 57.9067 49.8357C57.9208 49.8483 57.9437 49.8661 57.9761 49.8895C58.0406 49.936 58.1364 49.9999 58.2604 50.0806C58.5073 50.2413 58.8646 50.4683 59.2944 50.7511C60.0589 51.2541 61.0585 51.9381 62.1074 52.7626C61.8293 52.862 61.5296 52.9623 61.2157 53.0618C59.8583 52.0498 58.2076 50.9843 56.2001 49.9008L56.1731 49.8861L55.9285 48.9507L55.928 48.9472C55.9017 48.7318 55.8584 48.3957 55.8138 48.0878C55.7687 47.7775 55.7232 47.502 55.6932 47.4034C55.6762 47.3476 55.6324 47.1917 55.5733 46.9783C55.9412 46.9535 56.2991 46.9226 56.6294 46.886L57.0285 48.0127Z" stroke="#A2AAAD" stroke-width="0.830078"/>
<path d="M41.6368 46.1914C41.8644 46.1931 42.1536 46.1983 42.4185 46.2073C42.5841 46.213 42.7388 46.2201 42.8622 46.2287C42.9829 46.2371 43.0571 46.2462 43.0864 46.2526C43.117 46.2646 43.1486 46.2788 43.1811 46.2943C43.271 46.9146 43.3093 47.7249 43.1693 48.4127C43.0885 48.8098 42.9472 49.1726 42.7155 49.4343C42.481 49.6992 42.1532 49.8606 41.7127 49.8467L41.6368 49.8443V46.1914Z" stroke="#A2AAAD" stroke-width="0.830078"/>
<path d="M41.6368 36.5436C41.6766 36.5448 41.7249 36.5486 41.781 36.5551C41.8858 36.5672 42.001 36.5865 42.1099 36.6054L42.1169 36.6067L42.124 36.6073C42.2875 36.6233 42.9218 36.6436 43.3738 36.6149V37.7044L47.8579 42.4952L47.861 42.4987L49.2804 44.2437L50.4628 45.4711L50.4878 45.4972L50.0044 46.8839L49.462 49.7974C49.3332 49.7852 49.2052 49.7758 49.0788 49.7686C48.9871 49.7536 48.8978 49.7393 48.8099 49.7252C48.8434 49.5189 48.8761 49.3158 48.9072 49.1169C49.0759 48.0371 49.2045 47.0835 49.2554 46.4263C49.2809 46.0969 49.2865 45.8455 49.2691 45.6907C49.2648 45.6523 49.2592 45.6211 49.2526 45.5969C49.2504 45.589 49.2478 45.5822 49.2457 45.5764L49.2008 45.6091L49.1507 45.5468L43.3738 38.3811V38.5186C43.466 39.0702 43.5646 39.8958 43.5613 40.5855C43.5597 40.9306 43.5325 41.2461 43.464 41.4771C43.4299 41.5922 43.3841 41.6917 43.3212 41.7638C43.3088 41.7781 43.2952 41.7913 43.281 41.8036L43.2466 41.7979C43.1414 41.7808 43.0118 41.762 42.8 41.7376L42.7891 41.7363H42.7781C42.1592 41.7366 41.8363 41.7474 41.6368 41.7666V36.5436Z" stroke="#A2AAAD" stroke-width="0.830078"/>
<path d="M42.7659 41.9952C42.9899 42.0211 43.1158 42.0401 43.2215 42.0577C43.384 42.5552 43.5516 43.24 43.6065 43.9248C43.639 44.3301 43.6323 44.7372 43.5609 45.1064C43.4952 45.4456 43.3736 45.7561 43.1744 46.004L43.1658 46.0019C43.0979 45.9877 42.9958 45.9782 42.889 45.9707C42.7591 45.9617 42.5994 45.9543 42.4316 45.9486C42.1621 45.9394 41.8682 45.9343 41.6368 45.9326V42.027C41.8001 42.0086 42.0982 41.9956 42.7659 41.9952Z" stroke="#A2AAAD" stroke-width="0.830078"/>
<path fill-rule="evenodd" clip-rule="evenodd" d="M52.8628 22.9015C53.0661 22.9644 53.2589 23.0219 53.4363 23.072C53.5622 23.1076 53.6869 23.1459 53.8121 23.1867L53.7137 23.4636L53.713 23.4658L53.712 23.468L52.9225 25.2151L52.0554 27.5411L52.0549 27.5426L52.0541 27.5443L51.6419 28.4732L51.5377 28.046L50.3796 29.0544L48.2479 30.9311L48.2448 30.9338L48.2415 30.9362L47.139 31.7105L46.1217 32.6084L45.6523 33.2498L45.6498 33.2532L45.6469 33.2562L45.0942 33.8386L45.0885 33.8447L45.0812 33.8495L44.5582 34.1923V34.2979C47.4434 33.6861 51.7931 32.9257 55.594 32.607C57.5156 32.4458 59.3016 32.3972 60.6883 32.539C61.3816 32.6099 61.9795 32.7289 62.4458 32.9074C62.9099 33.085 63.25 33.3243 63.4191 33.6389C63.5457 33.8177 63.5549 34.0489 63.3737 34.2993C63.1941 34.5475 62.828 34.8149 62.2036 35.0809C60.9541 35.6134 58.6394 36.1537 54.5941 36.5163L54.5912 36.5165L54.5883 36.5167C53.112 36.5599 50.9159 36.5372 49.1265 36.3284C48.2329 36.224 47.4337 36.0726 46.8758 35.8566C46.5969 35.7486 46.372 35.622 46.2269 35.4727C46.0928 35.3348 46.0279 35.1779 46.0506 35.0036C45.8175 34.9223 45.4821 34.8263 45.1721 34.7815C45.0043 34.7573 44.8487 34.7487 44.7227 34.7632C44.6061 34.7767 44.5253 34.8089 44.4777 34.8576C44.4615 35.1104 44.3887 35.4765 44.2172 35.7787C44.2122 35.7875 44.2068 35.7962 44.2016 35.8049H44.2596L44.2753 35.8108C44.6183 35.9405 45.1448 36.1482 45.6096 36.3495C45.8418 36.4501 46.0599 36.5496 46.2323 36.6372C46.3183 36.681 46.394 36.7225 46.4548 36.76C46.5141 36.7965 46.5644 36.8326 46.5951 36.8661C46.6116 36.8841 46.6515 36.9143 46.7185 36.9562C46.7835 36.9969 46.8683 37.0451 46.9686 37.0989C47.1691 37.2065 47.4282 37.3349 47.7087 37.4686C48.1292 37.6692 48.5959 37.8811 48.9803 38.0517L49.3325 38.2067L49.3348 38.2077L49.3371 38.2088L51.623 39.3717C52.0732 39.5453 53.0393 39.9133 53.3515 40.0156C53.6725 40.1209 54.2292 40.3643 54.4658 40.472L54.4755 40.4764L54.4834 40.4829C54.5517 40.5389 54.6537 40.6324 54.7391 40.7326C54.7818 40.7827 54.8215 40.8359 54.8509 40.8879C54.8797 40.939 54.9013 40.9939 54.9013 41.0463C54.9013 41.134 54.872 41.2333 54.8382 41.3186C54.8041 41.4049 54.7631 41.4823 54.7351 41.5282C54.7281 41.5396 54.7169 41.5689 54.7099 41.6226C54.7031 41.6748 54.7006 41.7461 54.7076 41.8382C54.7217 42.0223 54.7731 42.2873 54.8982 42.6462C55.0231 43.0044 55.2764 43.4671 55.553 44.0362C55.6052 44.1435 55.6575 44.2545 55.7103 44.3688C55.4365 44.3914 55.1408 44.411 54.8365 44.4268L54.0371 42.2972L53.6517 41.5393L52.4859 40.7751L43.9336 36.1229C43.7868 36.2419 43.6027 36.3207 43.3738 36.3243V36.3546C42.9489 36.384 42.3213 36.365 42.1661 36.3506C42.0596 36.3321 41.9385 36.3119 41.825 36.2988C41.7636 36.2917 41.699 36.2861 41.6368 36.2848V30.8694C41.665 30.8828 41.6982 30.8894 41.733 30.8862C42.086 30.8545 42.4511 30.8438 42.7494 30.8464C42.8986 30.8477 43.0298 30.8524 43.1334 30.8592C43.2412 30.8663 43.3078 30.875 43.335 30.8816C43.4493 30.9093 43.553 30.9422 43.6656 30.9793C43.6561 30.9916 43.6467 31.0041 43.6368 31.0165C44.1217 31.3523 44.525 31.8708 44.5582 32.6319V32.8015L44.5813 32.7825C44.6562 32.7212 46.078 31.8147 47.6567 30.3269L47.6616 30.3222L47.6676 30.3184L48.7693 29.6089L51.0533 27.7371L51.5136 27.2969L51.7459 26.5992L52.2193 25.1116L52.6922 23.3026L52.6933 23.2985L52.695 23.2947L52.8628 22.9015ZM61.235 32.9261C61.1483 32.9183 61.0703 32.9696 61.0607 33.0406C61.0512 33.1116 61.1138 33.1756 61.2005 33.1834C61.2394 33.1869 61.2995 33.2009 61.3807 33.2249C61.4607 33.2485 61.5442 33.2763 61.6341 33.3047C61.8099 33.3603 62.0308 33.4818 62.1758 33.5801C62.2268 33.6147 62.2756 33.6719 62.3219 33.7526C62.3675 33.8324 62.4055 33.9256 62.4415 34.0239C62.4806 34.1304 62.4554 34.2132 62.3985 34.2915C62.3356 34.3783 62.2415 34.4509 62.1379 34.5389C62.0841 34.5845 61.9914 34.6359 61.8108 34.711C61.6323 34.7853 61.384 34.8765 61.0307 35.0064C60.8652 35.0672 60.7101 35.1144 60.5622 35.1578C60.4161 35.2006 60.2721 35.2411 60.1387 35.2859C60.0783 35.3062 59.9996 35.3204 59.9005 35.3356C59.8071 35.3499 59.6948 35.3652 59.5908 35.3887C59.4879 35.4119 59.3721 35.4328 59.2545 35.4538C59.1391 35.4744 59.0204 35.4954 58.9197 35.5181C58.8306 35.5382 58.7302 35.5508 58.6153 35.5641C58.5037 35.5771 58.3787 35.5907 58.2555 35.6138C57.9646 35.6682 57.6782 35.7097 57.3761 35.7526C57.1641 35.7826 56.9802 35.8155 56.8092 35.8466C56.6374 35.8778 56.4802 35.9069 56.316 35.9308C56.1918 35.9488 56.0796 35.953 55.8679 35.954C55.657 35.955 55.3521 35.9531 54.8553 35.9612C53.9068 35.9767 52.046 35.9666 51.0091 35.9506C50.4147 35.9414 50.0655 35.9188 49.8494 35.8962C49.6291 35.8733 49.5594 35.8529 49.4696 35.8395C49.1156 35.7867 48.8568 35.7432 48.5864 35.6853C48.3228 35.6289 48.1702 35.5772 48.0148 35.5239C47.8742 35.4757 47.7236 35.4051 47.575 35.3135C47.5038 35.2697 47.404 35.1815 47.2801 35.0712C47.1632 34.9672 47.029 34.8476 46.9034 34.7621C46.7004 34.6239 46.4825 34.5864 46.2989 34.5299L46.2872 34.5264L46.275 34.5243L46.2423 34.5195C46.2097 34.5155 46.1777 34.5133 46.1504 34.5117C46.1096 34.5093 46.0826 34.5085 46.0566 34.5061C46.0145 34.5024 45.9887 34.4955 45.9504 34.485C45.8677 34.4625 45.7783 34.499 45.7507 34.5668C45.7231 34.6346 45.7678 34.7079 45.8504 34.7305C45.8925 34.742 45.9451 34.7565 46.0225 34.7635C46.0563 34.7665 46.0983 34.7682 46.128 34.7699C46.1577 34.7716 46.1825 34.7738 46.2031 34.7767C46.4307 34.8457 46.5561 34.8622 46.7015 34.9611C46.8076 35.0333 46.9267 35.1387 47.0479 35.2465C47.162 35.3481 47.2852 35.4587 47.3853 35.5204C47.5528 35.6236 47.726 35.7054 47.8929 35.7627C48.0537 35.8178 48.222 35.8749 48.5067 35.9358L48.6119 35.9577C48.8565 36.0073 49.1005 36.0475 49.4131 36.0942C49.4676 36.1023 49.5827 36.1293 49.8096 36.1529C50.0409 36.177 50.4021 36.2002 51.003 36.2094C52.0418 36.2255 53.9073 36.2355 54.8617 36.2199C55.3555 36.2119 55.6549 36.2139 55.8697 36.2128C56.0837 36.2118 56.2188 36.2078 56.3712 36.1857C56.5435 36.1607 56.708 36.1302 56.8776 36.0993C57.0481 36.0684 57.2257 36.0366 57.4299 36.0076C57.7317 35.9648 58.0258 35.9223 58.3258 35.8662C58.4333 35.8461 58.5436 35.8339 58.6595 35.8204C58.7723 35.8073 58.892 35.7928 59.0034 35.7677C59.0941 35.7473 59.2034 35.7278 59.3217 35.7067C59.4379 35.6859 59.562 35.6637 59.6745 35.6383C59.762 35.6186 59.8555 35.6058 59.9586 35.59C60.0559 35.5751 60.1645 35.5569 60.2585 35.5253C60.3831 35.4834 60.5164 35.4462 60.6686 35.4016C60.8189 35.3575 60.9831 35.3075 61.1599 35.2426C61.51 35.1139 61.7668 35.0196 61.9538 34.9418C62.1387 34.8649 62.2722 34.7974 62.365 34.7186C62.4522 34.6446 62.5829 34.5437 62.6699 34.4239C62.763 34.2956 62.813 34.1382 62.7439 33.9496C62.7069 33.8484 62.6636 33.7404 62.6078 33.6428C62.5525 33.5463 62.4794 33.4501 62.3771 33.3807C62.219 33.2736 61.968 33.1329 61.7476 33.0632C61.666 33.0374 61.5718 33.0061 61.4877 32.9813C61.4049 32.9569 61.3141 32.9332 61.235 32.9261ZM60.7074 34.2661C60.6517 34.2112 60.5521 34.2038 60.4851 34.2495C60.4105 34.3003 60.3819 34.3149 60.3438 34.3305C60.2981 34.3491 60.2389 34.3686 60.1878 34.3843L60.1868 34.3847C60.0834 34.4171 59.954 34.4461 59.8073 34.4787C59.6642 34.5106 59.5066 34.5455 59.3604 34.5887C59.1252 34.6581 58.8813 34.7258 58.5852 34.7661C58.3173 34.8026 57.8798 34.8523 57.5889 34.9078C57.3938 34.945 57.1474 35.006 56.5122 35.0178C56.2171 35.0232 55.937 35.043 55.6794 35.0629C55.4198 35.0829 55.187 35.1027 54.977 35.1095C54.7249 35.1177 54.4774 35.1402 54.2175 35.1611C53.9561 35.1821 53.6767 35.2018 53.351 35.2064C52.2215 35.2224 51.5182 35.2225 51.4667 35.2225C51.3796 35.2225 51.3088 35.2804 51.3088 35.3519C51.3088 35.4234 51.3796 35.4813 51.4667 35.4813C51.5195 35.4813 52.2247 35.4813 53.3564 35.4653C53.6948 35.4605 53.9841 35.4398 54.2482 35.4186C54.5139 35.3973 54.7491 35.3759 54.9895 35.3681C55.2105 35.3609 55.4548 35.3402 55.709 35.3206C55.9655 35.3008 56.2362 35.2817 56.5193 35.2765C57.1871 35.2641 57.4587 35.1984 57.6604 35.1599C57.9382 35.1069 58.3529 35.06 58.6369 35.0214C58.9623 34.9772 59.2282 34.9028 59.4674 34.8322C59.5995 34.7932 59.7443 34.761 59.89 34.7286C60.0317 34.697 60.1774 34.6645 60.2985 34.6266L60.2986 34.6267C60.3529 34.6101 60.4241 34.5868 60.4846 34.5621C60.5526 34.5344 60.6023 34.5062 60.6871 34.4484C60.7541 34.4027 60.7632 34.3211 60.7074 34.2661ZM60.7372 33.1897C60.6755 33.1392 60.5756 33.1392 60.5139 33.1897C60.4476 33.244 60.3884 33.2922 60.3414 33.3262C60.178 33.4229 59.9066 33.5442 59.677 33.6549C59.5275 33.7262 59.0266 33.9288 58.5601 34.024C58.3048 34.0761 57.8978 34.2266 57.0147 34.263C56.5 34.2842 56.1617 34.2842 56.0067 34.2842C55.9195 34.2842 55.8488 34.3422 55.8488 34.4136C55.8488 34.4851 55.9195 34.543 56.0067 34.5431C56.1643 34.5431 56.5084 34.5431 57.0306 34.5216C57.9545 34.4835 58.416 34.3202 58.6364 34.2752C59.1401 34.1725 59.669 33.9583 59.8359 33.8788L59.8366 33.8784C60.0505 33.7752 60.3541 33.6393 60.5336 33.5319L60.5392 33.5286L60.5444 33.5248C60.6021 33.4835 60.6715 33.4266 60.7372 33.3727C60.7989 33.3222 60.7989 33.2403 60.7372 33.1897ZM59.2833 32.5694C58.5068 32.5694 57.7461 32.5694 57.2422 32.5917C56.733 32.6141 56.4899 32.6581 56.3453 32.6795C56.2034 32.7006 56.1482 32.7011 55.0537 32.8773C53.96 33.0534 51.8883 33.3951 50.8257 33.5714C49.7658 33.7473 49.7086 33.7589 49.652 33.7705C49.5674 33.7878 49.516 33.858 49.5371 33.9273C49.5583 33.9966 49.6439 34.0388 49.7285 34.0215C49.7761 34.0117 49.8234 34.0018 50.8883 33.8251C51.9508 33.6487 54.0219 33.3071 55.1146 33.1312C56.2058 32.9555 56.2553 32.956 56.4015 32.9343C56.545 32.913 56.7713 32.8717 57.2592 32.8501C57.7525 32.8284 58.5029 32.8283 59.2833 32.8283C59.3705 32.8283 59.4412 32.7703 59.4412 32.6989C59.4412 32.6274 59.3705 32.5694 59.2833 32.5694Z" stroke="#A2AAAD" stroke-width="0.830078"/>
<path d="M42.7997 29.042C42.8019 29.0426 42.8041 29.0432 42.8063 29.0438C42.8048 29.0479 42.8035 29.052 42.8025 29.0559C42.796 29.0514 42.7899 29.0466 42.784 29.0418C42.7937 29.0413 42.7989 29.042 42.7997 29.042Z" stroke="#A2AAAD" stroke-width="0.830078"/>
<path fill-rule="evenodd" clip-rule="evenodd" d="M42.3449 19.6439C42.0951 20.4372 42.0026 21.9552 41.9901 23.5381C41.9776 25.1152 42.0443 26.7478 42.1099 27.7718L42.2008 28.0939C42.4225 27.6135 42.7427 27.1694 43.1322 26.7609C43.2207 26.7706 43.3099 26.7848 43.3948 26.8037C43.5335 26.8508 43.7108 26.9244 43.8736 26.9987C43.3757 27.4451 43.0514 27.8287 42.7952 28.1388C42.6596 28.303 42.5406 28.4497 42.4234 28.5746C42.7344 28.613 43.1452 28.6829 43.51 28.7859C43.7223 28.8458 43.9228 28.9179 44.0796 29.0032C44.2346 29.0876 44.3592 29.1914 44.3979 29.3183L44.4002 29.326V29.334C44.4002 29.4074 44.3784 29.5208 44.3134 29.6307C44.2567 29.7268 44.1652 29.8227 44.0244 29.8852C44.0543 29.9756 44.0634 30.1089 44.0258 30.2752C43.995 30.4114 43.9325 30.5715 43.8226 30.7519C43.6911 30.7085 43.5607 30.6664 43.4246 30.6334C43.3627 30.6183 43.2668 30.6082 43.1586 30.6011C43.0461 30.5938 42.9073 30.5889 42.7528 30.5876C42.4439 30.5849 42.0659 30.5959 41.6985 30.6289C41.676 30.631 41.6552 30.6369 41.6368 30.6456V30.5659L41.6317 30.4166C41.6284 30.2708 41.6304 30.1355 41.6368 30.0102V19.563H42.3704L42.3449 19.6439ZM42.8967 28.7957C42.7995 28.77 42.692 28.7862 42.6227 28.81C42.5987 28.8183 42.577 28.8286 42.5578 28.8406C42.5319 28.8254 42.5001 28.8163 42.4658 28.8163C42.3787 28.8163 42.3079 28.8743 42.3079 28.9457C42.3079 28.9696 42.3081 29.0391 42.322 29.1425C42.3325 29.2212 42.3823 29.2809 42.4279 29.3225C42.4722 29.3629 42.5268 29.3985 42.5615 29.4222C42.6614 29.4906 42.7827 29.5138 42.8805 29.5264C42.9299 29.5327 42.9822 29.5372 43.0258 29.5415C43.0718 29.546 43.1119 29.5507 43.1484 29.5573C43.3453 29.5929 43.5177 29.6146 43.7205 29.6091C43.819 29.6065 43.8759 29.5519 43.9008 29.5184C43.9263 29.484 43.9383 29.4471 43.9438 29.4215C43.9762 29.2687 43.8425 29.158 43.749 29.0989C43.645 29.0331 43.5185 28.9845 43.4354 28.956C43.2762 28.9014 43.0837 28.8452 42.8967 28.7957Z" stroke="#A2AAAD" stroke-width="0.830078"/>
<path d="M45.392 25.0855C45.7048 25.188 45.973 25.2839 46.1872 25.3702C45.2732 25.8948 44.604 26.3761 44.0968 26.8045C43.9024 26.7133 43.678 26.6189 43.5054 26.561L43.4966 26.5581L43.4875 26.5561L43.4098 26.5398C43.3941 26.5367 43.3783 26.5339 43.3624 26.5312C43.941 25.9805 44.6437 25.4991 45.392 25.0855Z" stroke="#A2AAAD" stroke-width="0.830078"/>
<path d="M48.2257 23.8588C48.4105 23.91 48.6127 23.9788 48.8119 24.0686C47.9031 24.4641 47.1352 24.8432 46.483 25.2034C46.2794 25.115 46.0189 25.0173 45.7132 24.9133C46.5395 24.4842 47.4097 24.1333 48.2257 23.8588Z" stroke="#A2AAAD" stroke-width="0.830078"/>
<path d="M50.5133 23.3747C50.0248 23.5618 49.5684 23.7461 49.1414 23.927C48.982 23.8445 48.8178 23.7757 48.658 23.7185C49.3302 23.509 49.9512 23.3543 50.4611 23.2531L50.5133 23.3747Z" stroke="#A2AAAD" stroke-width="0.830078"/>
<path d="M58.9479 16.6563C59.1186 16.7487 59.2935 16.8453 59.471 16.945L57.8658 17.8053L57.8647 17.8058L56.3703 18.5793L55.5939 19.1521L55.208 19.658L54.8173 20.3625L54.6993 20.6937C54.6224 20.6704 54.5443 20.6472 54.465 20.6248C54.2704 20.5699 54.0483 20.5027 53.8086 20.4271L53.9518 20.0746L53.8757 19.6368L53.8741 19.6283L53.8755 19.6196L53.9545 19.1019L53.9578 19.0799L54.457 18.6708L54.4646 18.6669L55.0962 18.3434L55.1069 18.3379L55.119 18.3354L55.7379 18.2085L57.0692 17.5026L57.0721 17.5011L57.075 17.4999L58.4142 16.9188L58.9479 16.6563Z" stroke="#A2AAAD" stroke-width="0.830078"/>
<path d="M66.0864 12.1052L65.3814 12.6188L64.6759 13.3897L64.6726 13.3934L64.4318 13.5908L64.4291 13.5928L64.4265 13.5947L63.9528 13.9183L63.3324 14.363L63.0232 14.8066L63.0166 14.8162L63.0064 14.8234L62.2309 15.3741C62.0364 15.2578 61.8418 15.1438 61.6489 15.0327L61.9649 14.9133L62.4232 14.6002L62.8906 14.0896L63.3628 13.5092L63.3683 13.5022L63.376 13.4966L64.0866 12.979L64.0902 12.9764L64.094 12.9742L65.1205 12.3918L65.124 12.3899L65.1277 12.3883L65.9962 12L66.0864 12.1052Z" stroke="#A2AAAD" stroke-width="0.830078"/>
</svg>
