<svg width="85" height="85" viewBox="0 0 85 85" fill="none" xmlns="http://www.w3.org/2000/svg">
<rect width="85" height="85" rx="16" fill="#1D3541" fill-opacity="0.35"/>
<path d="M23 14V70M23 16H62M60 15V42M23 68H43" stroke="#A2AAAD" stroke-width="4"/>
<path d="M30 29H55M30 34H55M30 39H55M30 44H55M30 50H47M30 55H45" stroke="#A2AAAD" stroke-width="2"/>
<path d="M57.5 46C63.8513 46 69 51.1487 69 57.5C69 63.8513 63.8513 69 57.5 69C51.1487 69 46 63.8513 46 57.5C46 51.1487 51.1487 46 57.5 46ZM57.5 48.4639C52.5097 48.4639 48.4639 52.5097 48.4639 57.5C48.4639 62.4903 52.5097 66.5361 57.5 66.5361C62.4903 66.5361 66.5361 62.4903 66.5361 57.5C66.5361 52.5097 62.4903 48.4639 57.5 48.4639Z" fill="#A2AAAD"/>
<path d="M58 58.7969V52M57.7927 58.3008L55 60" stroke="#A2AAAD"/>
</svg>
