<svg width="300" height="300" viewBox="0 0 300 300" fill="none" xmlns="http://www.w3.org/2000/svg">
<path d="M87 104V65.5C92.6667 51.5 113.1 23.9 149.5 25.5C185.9 27.1 196 39.8333 196.5 46V57.5C203.833 55.8333 217.6 62.1 214 100.5" stroke="#0A2D3C" stroke-width="5"/>
<mask id="path-2-inside-1_109_2" fill="white">
<path d="M201 145C204.808 145 208.579 144.366 212.098 143.135C215.616 141.904 218.813 140.099 221.506 137.824C224.199 135.549 226.335 132.848 227.793 129.876C229.25 126.903 230 123.717 230 120.5C230 117.283 229.25 114.097 227.793 111.124C226.335 108.152 224.199 105.451 221.506 103.176C218.813 100.901 215.616 99.0962 212.098 97.865C208.579 96.6337 204.808 96 201 96L201 120.5V145Z"/>
</mask>
<path d="M201 145C204.808 145 208.579 144.366 212.098 143.135C215.616 141.904 218.813 140.099 221.506 137.824C224.199 135.549 226.335 132.848 227.793 129.876C229.25 126.903 230 123.717 230 120.5C230 117.283 229.25 114.097 227.793 111.124C226.335 108.152 224.199 105.451 221.506 103.176C218.813 100.901 215.616 99.0962 212.098 97.865C208.579 96.6337 204.808 96 201 96L201 120.5V145Z" stroke="#0A2D3C" stroke-width="10" mask="url(#path-2-inside-1_109_2)"/>
<circle cx="175" cy="124" r="6.5" fill="#0E303F" stroke="#0A2D3C"/>
<path d="M119 197C129.26 204.546 155.824 215.111 180 197" stroke="#0A2D3C" stroke-width="5"/>
<path d="M48 236C49 231.333 53.6 220.9 64 216.5C77 211 103 211.5 122.5 197" stroke="#0A2D3C" stroke-width="5"/>
<path d="M251.5 236C250.5 231.333 245.9 220.9 235.5 216.5C222.5 211 196.5 211.5 177 197" stroke="#0A2D3C" stroke-width="5"/>
<rect x="45.5" y="236.5" width="208" height="44" fill="#0A2D3C" stroke="#0A2D3C"/>
<line x1="122.5" y1="199" x2="122.5" y2="182" stroke="#0A2D3C" stroke-width="5"/>
<line x1="177.5" y1="199" x2="177.5" y2="182" stroke="#0A2D3C" stroke-width="5"/>
<mask id="path-10-inside-2_109_2" fill="white">
<path d="M206 139C206 145.829 204.577 152.591 201.813 158.9C199.049 165.208 194.998 170.941 189.891 175.77C184.784 180.598 178.72 184.428 172.048 187.042C165.375 189.655 158.223 191 151 191C143.777 191 136.625 189.655 129.952 187.042C123.28 184.428 117.216 180.598 112.109 175.77C107.002 170.941 102.951 165.208 100.187 158.9C97.4226 152.591 96 145.829 96 139L151 139H206Z"/>
</mask>
<path d="M206 139C206 145.829 204.577 152.591 201.813 158.9C199.049 165.208 194.998 170.941 189.891 175.77C184.784 180.598 178.72 184.428 172.048 187.042C165.375 189.655 158.223 191 151 191C143.777 191 136.625 189.655 129.952 187.042C123.28 184.428 117.216 180.598 112.109 175.77C107.002 170.941 102.951 165.208 100.187 158.9C97.4226 152.591 96 145.829 96 139L151 139H206Z" fill="#0A2D3C" stroke="#0A2D3C" stroke-width="2" mask="url(#path-10-inside-2_109_2)"/>
<line x1="98.5" y1="139" x2="98.5" y2="87" stroke="#0A2D3C" stroke-width="5"/>
<line x1="203.5" y1="139" x2="203.5" y2="87" stroke="#0A2D3C" stroke-width="5"/>
<path d="M98.5 87.5C102 79.5 112.7 67.4 127.5 83C142.3 98.6 164.667 89.5 174 83C180 77 194.3 69.4999 203.5 87.5" stroke="#0A2D3C" stroke-width="5"/>
<circle cx="128" cy="124" r="6.5" fill="#0E303F" stroke="#0A2D3C"/>
<mask id="path-15-inside-3_109_2" fill="white">
<path d="M101 147C97.1917 147 93.4206 146.366 89.9022 145.135C86.3837 143.904 83.1868 142.099 80.4939 139.824C77.801 137.549 75.6649 134.848 74.2075 131.876C72.7501 128.903 72 125.717 72 122.5C72 119.283 72.7501 116.097 74.2075 113.124C75.6649 110.152 77.801 107.451 80.4939 105.176C83.1868 102.901 86.3837 101.096 89.9022 99.865C93.4206 98.6337 97.1917 98 101 98L101 122.5V147Z"/>
</mask>
<path d="M101 147C97.1917 147 93.4206 146.366 89.9022 145.135C86.3837 143.904 83.1868 142.099 80.4939 139.824C77.801 137.549 75.6649 134.848 74.2075 131.876C72.7501 128.903 72 125.717 72 122.5C72 119.283 72.7501 116.097 74.2075 113.124C75.6649 110.152 77.801 107.451 80.4939 105.176C83.1868 102.901 86.3837 101.096 89.9022 99.865C93.4206 98.6337 97.1917 98 101 98L101 122.5V147Z" stroke="#0A2D3C" stroke-width="10" mask="url(#path-15-inside-3_109_2)"/>
<rect x="50.5" y="226.5" width="198" height="15" fill="#0A2D3C" stroke="#0A2D3C"/>
<rect x="56.5" y="219.5" width="187" height="9" fill="#0E303F" stroke="#0A2D3C"/>
<rect x="65.5" y="214.5" width="170" height="8" fill="#0B2E3D" stroke="#0A2D3C"/>
<rect x="85.5" y="210.5" width="128" height="8" fill="#0E303F" stroke="#0A2D3C"/>
<rect x="100.5" y="206.5" width="99" height="6" fill="#0E303F" stroke="#0A2D3C"/>
<rect x="111.5" y="205.5" width="77" height="6" fill="#0E303F" stroke="#0A2D3C"/>
<rect x="114.5" y="201.5" width="13" height="5" fill="#0E303F" stroke="#0A2D3C"/>
<rect x="169.5" y="201.5" width="15" height="6" fill="#0A2D3C" stroke="#0A2D3C"/>
</svg>
