<svg width="85" height="85" viewBox="0 0 85 85" fill="none" xmlns="http://www.w3.org/2000/svg">
<rect width="85" height="85" rx="16" fill="url(#paint0_linear_15_21)"/>
<path d="M43.2752 12.5647C52.8721 12.6813 60.615 20.1788 60.6151 29.4104C60.6151 32.2393 59.8861 34.9046 58.6014 37.2454C60.4319 37.2507 62.2845 37.5658 64.0926 38.2248C72.7662 41.3864 77.1529 51.2581 73.9559 60.3391C76.5601 52.8821 72.8002 44.7298 65.491 42.0657C63.183 41.2245 60.7947 41.0302 58.5194 41.3909C59.0094 42.9262 59.2752 44.5608 59.2752 46.2571C59.2752 53.5882 54.3365 59.7736 47.5809 61.72C49.0904 65.1067 51.8917 67.8876 55.6141 69.2444C62.8098 71.8668 70.7841 68.2008 73.6932 61.0364L73.8133 60.7307C70.4215 69.7218 60.7391 74.4434 52.077 71.2864C47.7054 69.6929 44.4219 66.395 42.6502 62.3528C42.4359 62.3477 42.2227 62.3377 42.0106 62.3245C39.3047 68.2516 33.5205 72.3469 26.8211 72.3469C17.5908 72.3468 10.097 64.5729 9.99983 54.9446C10.0994 62.8438 16.4169 69.2161 24.1951 69.2161C29.7738 69.216 34.5991 65.9374 36.9198 61.1692C30.9965 58.7698 26.8221 52.9975 26.8221 46.2571C26.8221 44.3272 27.1643 42.4767 27.7918 40.762C26.6432 40.4564 25.4378 40.2942 24.1951 40.2942C16.416 40.2942 10.0981 46.6681 9.99983 54.5686V54.5276C10.1164 44.9169 17.603 37.1634 26.8211 37.1633C27.0339 37.1633 27.2459 37.1688 27.4569 37.177C26.1956 34.8529 25.4823 32.2116 25.4823 29.4104C25.4823 20.1667 33.2448 12.662 42.8592 12.5647C34.9714 12.6645 28.6082 18.991 28.6082 26.7805C28.6082 29.89 29.6234 32.7655 31.3436 35.1057C34.2964 32.0551 38.4493 30.1565 43.0487 30.1565C47.6478 30.1566 51.8001 32.0552 54.7528 35.1057C56.473 32.7655 57.4881 29.8901 57.4881 26.7805C57.4881 18.9902 51.1242 12.6631 43.2352 12.5647H43.2752ZM42.9823 33.7043C39.3713 33.7043 36.1204 35.2585 33.8485 37.7395C35.7429 39.2828 38.0448 40.3574 40.5711 40.7873V42.9534C39.2152 43.6212 38.2821 45.0165 38.2821 46.6301C38.2821 46.6821 38.2831 46.7339 38.285 46.7854L36.5067 47.5549C35.2444 45.3205 33.4147 43.4609 31.2156 42.1838C30.7818 43.4611 30.5458 44.8313 30.5457 46.2571C30.5457 51.4308 33.6472 55.8726 38.075 57.7942C38.2808 56.8142 38.3914 55.7977 38.3914 54.7551C38.3914 53.5782 38.2525 52.4344 37.992 51.3391L40.4823 50.261C41.0494 50.5578 41.6942 50.7268 42.3787 50.7268C43.1432 50.7268 43.8581 50.5162 44.4705 50.1516L47.0252 51.344C46.2831 53.6634 46.1478 56.0395 46.5369 58.2883C51.6726 56.7443 55.4178 51.9428 55.4178 46.2571C55.4178 44.9472 55.2182 43.6844 54.8494 42.4973C52.4315 43.5981 50.3091 45.3733 48.7801 47.6799L46.4744 46.6028C46.4651 45.1849 45.7356 43.9385 44.6336 43.2102V40.9084C47.4751 40.6026 50.0689 39.4886 52.1707 37.8C49.8966 35.2838 46.6224 33.7044 42.9823 33.7043Z" fill="url(#paint1_linear_15_21)"/>
<defs>
<linearGradient id="paint0_linear_15_21" x1="0.566666" y1="2.17697e-07" x2="85.5667" y2="85" gradientUnits="userSpaceOnUse">
<stop stop-color="#3B5866"/>
<stop offset="1" stop-color="#002434"/>
</linearGradient>
<linearGradient id="paint1_linear_15_21" x1="9.99983" y1="12.5647" x2="75" y2="72.2835" gradientUnits="userSpaceOnUse">
<stop offset="0.278846" stop-color="white" stop-opacity="0.5"/>
<stop offset="1" stop-color="#3B5866" stop-opacity="0.5"/>
</linearGradient>
</defs>
</svg>
