<svg width="390" height="359" viewBox="0 0 390 359" fill="none" xmlns="http://www.w3.org/2000/svg">
<path d="M199.653 0.00195312C257.235 0.701703 303.688 45.685 303.688 101.074C303.688 118.044 299.327 134.038 291.622 148.08C302.601 148.113 313.712 150.005 324.556 153.958C376.597 172.927 402.918 232.158 383.736 286.644C399.361 241.902 376.802 192.992 332.947 177.007C319.1 171.96 304.772 170.794 291.121 172.957C294.061 182.169 295.649 191.979 295.649 202.156C295.649 246.144 266.02 283.263 225.484 294.94C234.542 315.257 251.35 331.935 273.682 340.074C317.541 356.061 366.223 333.109 382.966 288.767L382.881 288.994C362.53 342.942 304.433 371.272 252.459 352.328C226.231 342.768 206.536 322.982 195.905 298.731C194.618 298.701 193.336 298.646 192.062 298.566C175.825 334.125 141.121 358.692 100.928 358.692C45.5461 358.692 0.584211 312.049 0.000976562 254.279C0.598692 301.675 38.5016 339.908 85.1709 339.908C118.641 339.908 147.601 320.243 161.526 291.637C125.981 277.243 100.932 242.602 100.932 202.156C100.932 190.577 102.985 179.474 106.75 169.186C99.8582 167.353 92.6265 166.376 85.1709 166.376C38.4964 166.376 0.589587 204.618 0 252.021L0.00195312 251.777C0.700775 194.113 45.6189 147.592 100.928 147.592C102.202 147.592 103.471 147.616 104.733 147.665C97.1693 133.723 92.8926 117.878 92.8926 101.074C92.8928 45.6123 139.469 0.585057 197.155 0.000976562C149.829 0.599558 111.651 38.557 111.65 85.2939C111.65 103.953 117.736 121.211 128.059 135.253C145.775 116.946 170.692 105.551 198.291 105.551C225.889 105.551 250.805 116.946 268.521 135.253C278.844 121.211 284.931 103.953 284.931 85.2939C284.931 38.5519 246.744 0.590379 199.41 0L199.653 0.00195312ZM197.892 126.837C176.227 126.837 156.72 136.157 143.089 151.042C153.749 159.727 166.557 165.946 180.61 168.815V183.955C174.589 187.988 170.449 194.611 169.785 202.23L157.618 207.494C150.12 195.173 139.68 184.906 127.294 177.713C124.69 185.378 123.276 193.6 123.276 202.156C123.276 233.203 141.887 259.861 168.46 271.388C169.696 265.505 170.348 259.401 170.348 253.143C170.348 247.077 169.736 241.157 168.573 235.442L186.459 227.704C188.913 228.526 191.54 228.973 194.271 228.973C198.862 228.973 203.157 227.713 206.833 225.522L222.147 232.674C217.693 246.594 216.885 260.855 219.222 274.352C250.037 265.088 272.507 236.272 272.507 202.156C272.507 194.296 271.313 186.716 269.1 179.593C256.264 185.435 244.814 194.445 235.991 206.028L217.893 197.577C216.591 193.058 214.028 189.075 210.61 186.03V169.738C226.563 167.502 241.116 160.988 253.032 151.413C239.387 136.312 219.735 126.837 197.892 126.837Z" fill="url(#paint0_linear_15_5)"/>
<defs>
<linearGradient id="paint0_linear_15_5" x1="0" y1="0" x2="390" y2="358.313" gradientUnits="userSpaceOnUse">
<stop offset="0.278846" stop-color="white" stop-opacity="0.1"/>
<stop offset="1" stop-color="#3B5866" stop-opacity="0.1"/>
</linearGradient>
</defs>
</svg>
